<svg width="36" height="36" viewBox="0 0 36 36" fill="none" xmlns="http://www.w3.org/2000/svg">
<circle cx="18" cy="18" r="18" fill="black"/>
<path fill-rule="evenodd" clip-rule="evenodd" d="M22.4542 6.43056C22.4542 7.52767 21.9696 8.62478 21.2857 9.41639C20.5588 10.2914 19.3049 10.9441 18.3074 10.9442C18.1934 10.9442 18.0793 10.9302 18.0081 10.9164C17.9939 10.8608 17.9654 10.6941 17.9654 10.5275C17.9654 9.41639 18.5497 8.31928 19.1766 7.62489C19.9747 6.72222 21.2999 6.04168 22.4114 6C22.4399 6.12505 22.4542 6.27781 22.4542 6.43056ZM26.3743 13.3415C26.402 13.3238 26.421 13.3116 26.4298 13.3049C24.9479 11.2357 22.6963 11.1801 22.0692 11.1799C21.1111 11.1799 20.2535 11.5112 19.5325 11.7898C19.0097 11.9917 18.5587 12.166 18.1933 12.166C17.7902 12.166 17.3287 11.9842 16.8136 11.7813C16.1633 11.5252 15.4277 11.2355 14.6167 11.2355C11.8808 11.2355 9.10205 13.4437 9.10205 17.61C9.10205 20.2069 10.128 22.9428 11.3962 24.7066C12.4934 26.2064 13.4482 27.4286 14.8162 27.4286C15.4649 27.4286 15.9406 27.2318 16.4408 27.0249C16.9954 26.7955 17.5801 26.5536 18.4641 26.5536C19.3568 26.5536 19.8905 26.7807 20.4052 26.9997C20.8847 27.2037 21.3478 27.4007 22.0693 27.4007C23.5655 27.4007 24.5488 26.0815 25.4893 24.7621C26.5438 23.2623 26.9856 21.7901 26.9998 21.7207C26.9142 21.693 24.0501 20.5681 24.0501 17.3878C24.0501 14.8281 26.0012 13.5801 26.3743 13.3415Z" fill="white"/>
</svg>
