<svg width="323" height="350" viewBox="0 0 323 350" fill="none" xmlns="http://www.w3.org/2000/svg">
<g clip-path="url(#clip0_45_4481)">
<rect width="323" height="350" fill="white"/>
<path d="M125.101 287.267C118.674 281.24 109.36 277.783 99.5481 277.783L99.1696 277.784C92.7066 277.786 86.3589 276.228 80.7758 273.268L80.1948 272.96L80.6627 272.521C83.196 270.138 85.3113 267.415 86.9345 264.447C85.7817 265.425 84.4067 266.16 82.9069 266.6C81.407 267.041 79.819 267.176 78.2553 266.997C76.6043 266.818 75.0194 266.301 73.6193 265.486C72.2192 264.671 71.0404 263.577 70.1712 262.289C66.7418 257.229 62.6538 250.05 62.6538 244.581C62.6591 239.958 63.7236 235.387 65.7795 231.16C67.8353 226.932 70.8373 223.14 74.5941 220.025C76.9726 218.075 78.8723 215.691 80.1695 213.029C81.4668 210.366 82.1323 207.485 82.1228 204.573L82.1209 204.159C82.1203 200.325 82.6355 196.506 83.6552 192.786L83.7587 192.41L84.1838 192.424C86.9248 192.509 89.6673 192.3 92.3546 191.801C89.8339 191.52 87.368 190.924 85.0268 190.029L84.5695 189.861L84.7247 189.435C95.4222 183.412 119.569 186.531 133.585 157.373C144.95 133.73 185.05 178.361 185.05 204.159C185.05 206.791 182.184 210.27 184.329 212.01C207.515 230.818 191.517 242.895 186.473 255.048C185.277 257.931 187.871 261.096 187.871 264.216C187.871 264.745 187.857 265.291 187.827 265.84L187.783 266.683L187.009 266.215C185.48 265.304 184.063 264.247 182.781 263.061C184.111 265.843 184.737 268.861 184.615 271.893C184.492 274.924 183.624 277.892 182.073 280.578C179.643 284.748 177.293 287.733 175.086 289.45C168.019 294.949 158.908 297.786 149.617 297.38C140.326 296.974 131.556 293.357 125.101 287.267H125.101Z" fill="#00A2FF"/>
<path d="M163.918 350C164.076 350 164.229 349.948 164.348 349.854C164.467 349.759 164.545 349.629 164.567 349.487C164.595 349.309 167.328 331.388 164.874 307.57C162.607 285.574 155.328 253.891 133.523 227.871C133.471 227.808 133.405 227.756 133.331 227.716C133.256 227.677 133.174 227.651 133.088 227.64C133.003 227.63 132.916 227.635 132.832 227.655C132.749 227.675 132.671 227.71 132.602 227.757C132.533 227.805 132.476 227.864 132.432 227.932C132.389 228 132.361 228.075 132.349 228.153C132.338 228.23 132.343 228.309 132.365 228.385C132.387 228.461 132.426 228.532 132.478 228.595C154.095 254.39 161.315 285.84 163.566 307.681C166.006 331.36 163.295 349.142 163.267 349.319C163.254 349.403 163.261 349.49 163.287 349.572C163.314 349.654 163.36 349.73 163.422 349.794C163.483 349.859 163.56 349.911 163.645 349.946C163.731 349.982 163.824 350 163.918 350V350Z" fill="#3F3D56"/>
<path d="M146.124 264.574C146.263 264.574 146.398 264.534 146.51 264.46C146.622 264.386 146.706 264.281 146.749 264.161C146.792 264.041 146.792 263.912 146.749 263.792C146.706 263.672 146.623 263.568 146.51 263.494C140.297 259.67 133.585 256.563 126.529 254.245C115.505 250.575 98.741 247.248 81.4829 252.242C81.4005 252.266 81.3241 252.304 81.258 252.355C81.1919 252.405 81.1374 252.467 81.0977 252.537C81.0579 252.607 81.0337 252.683 81.0263 252.761C81.019 252.839 81.0286 252.918 81.0548 252.993C81.081 253.068 81.1232 253.137 81.1789 253.197C81.2346 253.257 81.3028 253.306 81.3796 253.342C81.4563 253.378 81.5401 253.4 81.6262 253.407C81.7123 253.413 81.7989 253.404 81.8811 253.38C98.7857 248.489 115.246 251.761 126.077 255.366C133.02 257.645 139.625 260.699 145.738 264.46C145.85 264.534 145.985 264.574 146.124 264.574Z" fill="#3F3D56"/>
<path d="M176.18 196.507C176.19 196.381 176.156 196.256 176.083 196.149C176.01 196.042 175.901 195.958 175.772 195.911C175.644 195.863 175.502 195.854 175.368 195.884C175.233 195.914 175.112 195.982 175.023 196.079C170.381 201.438 166.489 207.302 163.439 213.534C158.619 223.268 153.762 238.231 157.998 254.243C158.018 254.319 158.054 254.391 158.105 254.454C158.156 254.518 158.22 254.572 158.293 254.613C158.367 254.654 158.449 254.681 158.534 254.693C158.619 254.706 158.706 254.703 158.79 254.684C158.874 254.666 158.953 254.633 159.023 254.586C159.093 254.54 159.152 254.482 159.197 254.415C159.242 254.348 159.272 254.274 159.285 254.196C159.299 254.119 159.295 254.04 159.275 253.963C155.126 238.28 159.901 223.588 164.636 214.025C167.635 207.892 171.462 202.122 176.027 196.849C176.116 196.753 176.17 196.633 176.18 196.507Z" fill="#3F3D56"/>
<path d="M302.848 349.368H250.57L250.345 348.997C249.677 347.895 249.031 346.727 248.428 345.527C243.043 335.044 240.767 323.055 238.759 312.478L237.247 304.505C237.064 303.539 237.202 302.546 237.643 301.652C238.084 300.758 238.809 300.004 239.724 299.487C240.64 298.97 241.704 298.713 242.781 298.749C243.858 298.785 244.898 299.112 245.769 299.689C253.714 304.945 261.662 310.197 269.613 315.443C272.624 317.435 276.062 319.74 279.355 322.232C279.672 320.829 280.005 319.421 280.337 318.034C280.566 317.076 281.104 316.202 281.883 315.523C282.662 314.845 283.645 314.394 284.708 314.226C285.77 314.059 286.864 314.185 287.847 314.586C288.831 314.987 289.661 315.646 290.231 316.478L296.347 325.414C300.809 331.939 304.746 338.369 303.944 345.304C303.948 345.389 303.941 345.473 303.923 345.556C303.762 346.695 303.465 347.815 303.035 348.895L302.848 349.368Z" fill="#F0F0F0"/>
<path d="M278.492 162.491L268.403 128.536C267.971 127.098 266.934 125.873 265.517 125.124C264.1 124.375 262.416 124.163 260.829 124.533C260.008 124.725 259.238 125.067 258.567 125.537C257.895 126.008 257.336 126.598 256.924 127.272C256.512 127.946 256.255 128.688 256.169 129.455C256.082 130.222 256.169 130.997 256.423 131.733L268.092 166.711L274.198 188.238C273.308 188.855 272.65 189.706 272.311 190.676C271.973 191.645 271.97 192.686 272.305 193.657C272.64 194.628 273.295 195.481 274.182 196.102C275.068 196.722 276.144 197.079 277.261 197.124C278.379 197.17 279.485 196.901 280.429 196.355C281.373 195.809 282.109 195.012 282.537 194.072C282.966 193.132 283.066 192.096 282.823 191.102C282.581 190.109 282.009 189.208 281.183 188.521L278.492 162.491Z" fill="#FFCBA5"/>
<path d="M193.593 155.178L224.248 133.726C225.544 132.814 226.393 131.475 226.613 129.998C226.833 128.522 226.405 127.026 225.422 125.833C224.914 125.216 224.272 124.7 223.537 124.316C222.802 123.931 221.989 123.687 221.147 123.598C220.305 123.509 219.452 123.577 218.639 123.798C217.827 124.018 217.072 124.387 216.422 124.881L185.33 148.052L165.785 161.407C164.817 160.896 163.701 160.667 162.586 160.753C161.471 160.839 160.412 161.235 159.554 161.887C158.695 162.539 158.078 163.416 157.786 164.398C157.494 165.38 157.542 166.42 157.923 167.377C158.304 168.333 159 169.16 159.915 169.744C160.831 170.329 161.922 170.643 163.041 170.644C164.16 170.645 165.252 170.333 166.169 169.749C167.086 169.166 167.783 168.341 168.166 167.385L193.593 155.178Z" fill="#FFCBA5"/>
<path d="M218.578 160.109L217.227 187.549L259.654 179.165C256.043 168.139 253.588 166.258 256.301 158.585L218.578 160.109Z" fill="#FFCBA5"/>
<path d="M244.666 109.803H230.529L224.458 119.25L221.565 119.105C220.15 119.033 218.734 119.226 217.404 119.669C216.073 120.112 214.856 120.798 213.827 121.683C212.798 122.569 211.978 123.636 211.418 124.82C210.857 126.003 210.568 127.278 210.568 128.567L214.133 133.59C214.133 133.59 207.758 143.691 216.941 148.661C216.941 148.661 215.303 158.024 216.941 157.923C218.578 157.822 222.351 155.917 218.578 157.822C214.806 159.728 215.087 159.984 215.575 160.428L216.063 160.871L255.729 166.927C255.729 166.927 256.89 159.936 257.015 158.688C257.14 157.441 256.301 160.49 257.14 157.441C257.978 154.392 259.235 155.536 257.978 154.392C256.721 153.249 266.125 139.084 262.261 133.59L268.457 128.095C268.457 122.825 259.147 118.552 253.351 118.552H252.608L244.666 109.803Z" fill="#00A2FF"/>
<path d="M210.604 338.789H204.882L202.16 318.721L210.605 318.721L210.604 338.789Z" fill="#A0616A"/>
<path d="M193.334 346.466C193.337 347.048 193.592 347.607 194.045 348.019C194.498 348.432 195.111 348.665 195.752 348.669H206.524L206.858 348.04L208.381 345.182L208.971 348.04L209.102 348.669H213.165L213.107 348.036L212.023 336.223L210.606 336.144L204.483 335.814L202.978 335.73V339.258C201.837 340.361 192.879 344.535 193.334 346.466Z" fill="#2F2E41"/>
<path d="M295.642 325.161L290.83 327.976L276.6 312.438L283.703 308.284L295.642 325.161Z" fill="#A0616A"/>
<path d="M285.686 340.113C286.035 340.602 286.582 340.946 287.208 341.07C287.835 341.194 288.489 341.089 289.031 340.777L298.089 335.478L297.996 334.785L297.576 331.631L299.774 333.745L300.258 334.21L303.674 332.211L303.249 331.707L295.309 322.305L294.07 322.936L288.724 325.671L287.409 326.341L289.508 329.307C289.205 330.797 284.155 338.713 285.686 340.113Z" fill="#2F2E41"/>
<path d="M322.335 349.734L145.156 349.891C144.979 349.891 144.81 349.826 144.685 349.712C144.561 349.598 144.491 349.444 144.491 349.283C144.491 349.122 144.561 348.968 144.685 348.854C144.81 348.74 144.979 348.676 145.156 348.675L322.335 348.518C322.512 348.519 322.681 348.583 322.806 348.697C322.93 348.811 323 348.965 323 349.126C323 349.287 322.93 349.441 322.806 349.555C322.681 349.669 322.512 349.734 322.335 349.734Z" fill="#CACACA"/>
<path d="M258.99 176.065C258.99 176.065 231.869 189.109 217.525 180.21C217.525 180.21 214.387 194.028 213.129 195.172C211.872 196.315 209.869 196.813 211.289 198.089C212.71 199.364 213.501 201.087 210.8 203.274C208.1 205.462 205.407 204.768 208.011 207.02C210.615 209.273 200.136 264.535 200.136 264.535C200.136 264.535 201.813 315.926 200.136 317.48C198.459 319.034 196.218 319.382 198.387 321.304C200.555 323.226 200.555 321.736 200.555 324.387V327.038L201.547 329.672H215.156C215.156 329.672 218.441 326.203 215.156 323.19C211.872 320.178 216.156 319.353 217.158 316.526C218.159 313.699 219.836 316.748 218.159 313.699C216.483 310.65 215.677 311.23 215.661 309.225C215.644 307.22 240.374 228.71 240.374 228.71L243.369 272.164L279.397 319.754L290.001 312.522C290.001 312.522 282.28 302.639 284.086 301.28C285.891 299.922 278.765 298.218 281.012 296.685C283.259 295.153 277.849 293.608 279.888 291.577C281.927 289.545 277.079 284.425 274.27 284.425C271.461 284.425 267.518 275.889 267.518 275.889L273.404 208.46L258.99 176.065Z" fill="#2F2E41"/>
<path d="M230.244 82.0669C230.053 82.296 228.523 82.1726 226.685 81.9285C223.049 81.4458 222.553 82.0194 219.836 84.2674C215.898 87.5237 218.137 107.385 216.202 111.688L215.577 112.107C216.817 111.892 218.035 111.582 219.217 111.181C219.885 109.265 220.555 107.342 221.229 105.427C221.866 106.917 222.266 108.482 222.418 110.074C223.354 109.739 224.284 108.918 228.195 107.818C230.164 106.603 244.41 105.382 246.242 104.848C250.89 90.4676 243.399 84.6524 230.244 82.0669Z" fill="#2F2E41"/>
<path d="M235.054 104.241C242.573 104.241 248.668 98.6989 248.668 91.8623C248.668 85.0258 242.573 79.4836 235.054 79.4836C227.536 79.4836 221.44 85.0258 221.44 91.8623C221.44 98.6989 227.536 104.241 235.054 104.241Z" fill="#FFCBA5"/>
<path d="M243.626 80.9758C242.858 80.8729 242.12 80.6375 241.45 80.2823C241.118 80.0999 240.849 79.8363 240.674 79.5215C240.498 79.2067 240.424 78.8535 240.459 78.5022C240.627 77.6226 241.72 77.0975 242.7 77.151C243.676 77.2789 244.603 77.62 245.402 78.1451C245.314 77.2951 244.915 76.4966 244.268 75.8778C243.621 75.259 242.764 74.8559 241.835 74.7331C243.124 74.67 244.464 74.6143 245.656 75.065C246.848 75.5158 247.841 76.6318 247.626 77.7891C249.63 77.5544 251.605 78.8238 252.433 80.4997C253.26 82.1756 253.096 84.1437 252.435 85.8796C252.37 86.1455 252.243 86.3955 252.062 86.6127C251.881 86.8298 251.651 87.0092 251.388 87.1385C250.713 87.3712 249.988 86.981 249.403 86.5964C246.351 84.587 243.573 82.2541 241.128 79.6471" fill="#2F2E41"/>
<path d="M249.562 105.023C248.985 105.27 249.285 106.189 248.837 106.601C248.642 106.775 248.407 106.908 248.149 106.989C248.082 106.222 247.885 105.469 247.567 104.756C247.508 104.626 247.411 104.482 247.261 104.493C247.085 104.512 247.038 104.722 247.034 104.878C246.999 105.653 246.81 106.416 246.477 107.13C246.473 107.138 246.468 107.149 246.464 107.157C246.334 107.153 246.2 107.149 246.074 107.146C245.102 107.111 242.948 104.84 242.47 105.61C244.155 102.892 246.209 98.8068 246.523 95.7007C246.632 95.0504 246.579 94.3862 246.368 93.757C246.258 93.444 246.051 93.1663 245.772 92.9569C245.494 92.7475 245.155 92.6151 244.796 92.5756C244.619 92.5682 244.442 92.5966 244.279 92.6585C244.115 92.7205 243.969 92.8146 243.85 92.934C243.731 93.0534 243.642 93.1953 243.591 93.3495C243.539 93.5036 243.526 93.6662 243.551 93.8257L243.308 93.7952C241.053 92.1259 242.998 89.2256 240.374 88.0785C239.485 87.6897 234.045 88.9893 233.085 88.7606C233.065 87.8413 232.859 86.9331 232.477 86.0814C232.419 85.9518 232.322 85.807 232.171 85.8184C231.995 85.8375 231.949 86.0471 231.945 86.2033C231.909 86.9785 231.721 87.7415 231.388 88.4557C230.058 88.2842 228.704 88.3489 227.401 88.6463C226.253 88.9207 225.163 89.3933 224.011 89.6448C223.441 89.8036 222.841 89.855 222.249 89.7961C221.657 89.7371 221.084 89.5689 220.565 89.3018C219.102 88.41 218.847 86.4358 219.576 84.9799C220.104 84.0458 220.817 83.2085 221.68 82.5103C222.338 81.931 223.021 81.3746 223.705 80.8182C224.317 80.3189 224.929 79.8196 225.54 79.3204C226.311 78.6611 227.132 78.0524 227.997 77.4987C229.378 76.6755 230.929 76.1177 232.556 75.8595C234.183 75.6012 235.851 75.6481 237.457 75.9971C239.385 76.4163 241.963 75.8256 243.727 76.645C244.649 77.0756 246.691 78.7259 247.499 79.3128C249.57 80.8106 248.169 79.5901 250.434 80.4561C255.834 82.521 253.446 103.36 249.562 105.023Z" fill="#2F2E41"/>
<path d="M98.8246 195.373C145.453 195.373 183.253 161.003 183.253 118.606C183.253 76.208 145.453 41.8379 98.8246 41.8379C52.1962 41.8379 14.3965 76.208 14.3965 118.606C14.3965 161.003 52.1962 195.373 98.8246 195.373Z" fill="white"/>
<path d="M98.8246 196.14C51.8061 196.14 13.5537 161.358 13.5537 118.606C13.5537 75.8532 51.8061 41.0715 98.8246 41.0715C145.843 41.0715 184.095 75.8532 184.095 118.606C184.095 161.358 145.843 196.14 98.8246 196.14ZM98.8246 42.6041C52.7356 42.6041 15.2392 76.6983 15.2392 118.606C15.2392 160.513 52.7355 194.607 98.8246 194.607C144.914 194.607 182.41 160.513 182.41 118.606C182.41 76.6983 144.914 42.6041 98.8246 42.6041Z" fill="#F4F4F5"/>
<path d="M87.3071 158.56C85.8491 158.56 84.4112 158.251 83.1072 157.658C81.8033 157.065 80.6691 156.204 79.7947 155.143L56.7614 127.218C56.0214 126.321 55.4831 125.3 55.177 124.214C54.871 123.128 54.8033 121.997 54.9777 120.887C55.1522 119.777 55.5654 118.709 56.1938 117.744C56.8222 116.779 57.6534 115.936 58.6401 115.263C59.6267 114.591 60.7494 114.101 61.9441 113.823C63.1388 113.545 64.3821 113.483 65.603 113.642C66.8239 113.8 67.9984 114.176 69.0596 114.747C70.1208 115.319 71.0478 116.075 71.7877 116.972L86.8569 135.239L125.56 82.4528C126.942 80.5699 129.091 79.2632 131.532 78.8199C133.974 78.3766 136.509 78.833 138.581 80.0888C140.652 81.3446 142.091 83.297 142.58 85.5168C143.069 87.7366 142.569 90.0421 141.189 91.9266L95.1221 154.757C94.2888 155.893 93.168 156.831 91.8537 157.492C90.5394 158.154 89.0699 158.519 87.5685 158.557C87.4813 158.558 87.3942 158.56 87.3071 158.56Z" fill="#00A2FF" fill-opacity="0.56"/>
<path d="M185.81 46.6343C186.045 45.1666 184.355 43.728 182.034 43.421C179.714 43.114 177.643 44.055 177.408 45.5227C177.173 46.9904 178.863 48.429 181.184 48.736C183.504 49.043 185.576 48.102 185.81 46.6343Z" fill="#990ECA"/>
<path d="M213.436 44.1834C213.671 42.7157 211.981 41.2771 209.66 40.9701C207.34 40.6631 205.268 41.6041 205.034 43.0718C204.799 44.5395 206.489 45.9781 208.81 46.2851C211.13 46.592 213.201 45.6511 213.436 44.1834Z" fill="#3F3D56"/>
<path d="M178.245 26.2982C178.48 24.8305 176.789 23.3919 174.469 23.0849C172.148 22.778 170.077 23.7189 169.842 25.1866C169.607 26.6543 171.298 28.093 173.618 28.3999C175.939 28.7069 178.01 27.7659 178.245 26.2982Z" fill="#FF6584"/>
<path d="M166.241 17.9681C166.252 16.6207 165.426 15.5226 164.395 15.5155C163.364 15.5084 162.519 16.595 162.508 17.9424C162.497 19.2898 163.323 20.3878 164.354 20.3949C165.385 20.402 166.23 19.3155 166.241 17.9681Z" fill="#990ECA"/>
<path d="M162.17 2.45256C162.181 1.10515 161.355 0.0071202 160.324 3.23735e-05C159.293 -0.00705545 158.448 1.07949 158.437 2.42689C158.426 3.77429 159.253 4.87232 160.283 4.87941C161.314 4.8865 162.159 3.79996 162.17 2.45256Z" fill="#3F3D56"/>
<path d="M193.827 29.7588C193.838 28.4114 193.011 27.3134 191.98 27.3063C190.95 27.2992 190.105 28.3858 190.094 29.7332C190.082 31.0806 190.909 32.1786 191.94 32.1857C192.971 32.1928 193.815 31.1062 193.827 29.7588Z" fill="#990ECA"/>
<path d="M180.476 35.8197C180.488 34.4723 179.661 33.3742 178.63 33.3671C177.599 33.36 176.755 34.4466 176.743 35.794C176.732 37.1414 177.559 38.2394 178.59 38.2465C179.62 38.2536 180.465 37.1671 180.476 35.8197Z" fill="#FF6584"/>
<path d="M199.06 47.0215C199.072 45.6741 198.245 44.5761 197.214 44.569C196.183 44.5619 195.339 45.6485 195.327 46.9959C195.316 48.3433 196.143 49.4413 197.174 49.4484C198.205 49.4555 199.049 48.369 199.06 47.0215Z" fill="#3F3D56"/>
<path d="M27.3734 228.5C27.6082 227.032 25.9176 225.593 23.5972 225.286C21.2769 224.979 19.2055 225.92 18.9706 227.388C18.7358 228.856 20.4264 230.294 22.7467 230.601C25.0671 230.908 27.1385 229.967 27.3734 228.5Z" fill="#990ECA"/>
<path d="M54.9993 226.048C55.2342 224.581 53.5435 223.142 51.2232 222.835C48.9029 222.528 46.8315 223.469 46.5966 224.937C46.3618 226.404 48.0524 227.843 50.3727 228.15C52.6931 228.457 54.7644 227.516 54.9993 226.048Z" fill="#3F3D56"/>
<path d="M19.8084 208.163C20.0433 206.695 18.3526 205.257 16.0323 204.95C13.712 204.643 11.6406 205.584 11.4057 207.051C11.1709 208.519 12.8615 209.958 15.1818 210.265C17.5022 210.572 19.5736 209.631 19.8084 208.163Z" fill="#FF6584"/>
<path d="M7.80414 199.833C7.81534 198.486 6.98876 197.388 5.9579 197.381C4.92705 197.374 4.08228 198.46 4.07107 199.808C4.05987 201.155 4.88647 202.253 5.91732 202.26C6.94818 202.267 7.79293 201.181 7.80414 199.833Z" fill="#990ECA"/>
<path d="M3.73331 184.318C3.74451 182.97 2.91792 181.872 1.88707 181.865C0.856213 181.858 0.011463 182.945 0.000261923 184.292C-0.0109392 185.639 0.81565 186.737 1.8465 186.745C2.87736 186.752 3.72211 185.665 3.73331 184.318Z" fill="#3F3D56"/>
<path d="M35.3896 211.624C35.4008 210.276 34.5742 209.178 33.5433 209.171C32.5125 209.164 31.6677 210.251 31.6565 211.598C31.6453 212.946 32.4719 214.044 33.5027 214.051C34.5336 214.058 35.3784 212.971 35.3896 211.624Z" fill="#990ECA"/>
<path d="M22.0395 217.685C22.0507 216.337 21.2241 215.239 20.1933 215.232C19.1624 215.225 18.3176 216.312 18.3064 217.659C18.2952 219.006 19.1218 220.104 20.1527 220.111C21.1835 220.119 22.0283 219.032 22.0395 217.685Z" fill="#FF6584"/>
<path d="M40.6234 228.887C40.6346 227.539 39.808 226.441 38.7772 226.434C37.7463 226.427 36.9016 227.513 36.8904 228.861C36.8792 230.208 37.7058 231.306 38.7366 231.313C39.7675 231.32 40.6122 230.234 40.6234 228.887Z" fill="#3F3D56"/>
</g>
<defs>
<clipPath id="clip0_45_4481">
<rect width="323" height="350" fill="white"/>
</clipPath>
</defs>
</svg>
