<svg width="135" height="129" viewBox="0 0 135 129" fill="none" xmlns="http://www.w3.org/2000/svg">
<path d="M51.5998 12.5785C50.3409 16.1381 52.7114 22.1358 50.3223 23.3813L50.5192 23.0583C51.9612 20.1468 48.9471 13.9845 50.3892 11.073C50.6132 10.6459 50.8056 10.1766 50.9622 9.67505" fill="#2F2E41"/>
<path d="M74.1277 64.8411C74.2014 64.479 74.1892 64.1061 74.0922 63.7489C73.9951 63.3916 73.8155 63.0586 73.566 62.7732C73.3165 62.4879 73.0031 62.2573 72.648 62.0975C72.2929 61.9377 71.9046 61.8528 71.5106 61.8486L65.96 46.7625L62.8877 50.426L68.7563 64.5223C68.7926 65.142 69.0707 65.7277 69.5378 66.1684C70.0048 66.6092 70.6285 66.8743 71.2906 66.9136C71.9527 66.9529 72.6072 66.7636 73.1301 66.3817C73.653 65.9997 74.008 65.4515 74.1277 64.8411L74.1277 64.8411Z" fill="#FFB8B8"/>
<path d="M49.988 28.2953C49.988 28.2953 49.8142 22.8316 55.0669 25.9615C60.3196 29.0914 71.7561 58.4109 71.7561 58.4109L66.0648 61.275L53.1448 34.4443L49.988 28.2953Z" fill="#00A2FF"/>
<path d="M66.1127 120.779L62.4997 121.744L54.8252 113.493L60.1578 112.069L66.1127 120.779Z" fill="#FFB6B6"/>
<path d="M68.5311 124.939L66.512 125.677L65.337 124.179L65.2285 126.146L59.8734 128.104C59.6167 128.197 59.3317 128.219 59.0599 128.164C58.7881 128.11 58.5439 127.982 58.3627 127.8C58.1816 127.619 58.0732 127.392 58.0532 127.154C58.0332 126.916 58.1027 126.679 58.2516 126.477L61.266 122.388L60.4425 120.739L65.0553 119.325L68.5311 124.939Z" fill="#2F2E41"/>
<path d="M21.2535 124.163L18.5224 124.032L17.7373 113.681L21.7686 113.874L21.2535 124.163Z" fill="#FFB6B6"/>
<path d="M22.5749 129L20.5824 128.902L20.3187 126.996L19.3159 128.84L14.0313 128.581C13.7779 128.568 13.5352 128.475 13.3385 128.314C13.1418 128.153 13.0014 127.934 12.9379 127.687C12.8743 127.441 12.8909 127.18 12.9852 126.944C13.0795 126.707 13.2466 126.507 13.4621 126.373L17.8246 123.653L17.9176 121.744L22.3435 122.228L22.5749 129Z" fill="#2F2E41"/>
<path d="M111.425 122.232C111.625 122.238 111.822 122.191 111.99 122.097C112.158 122.004 112.289 121.868 112.364 121.708C112.44 121.548 112.456 121.372 112.412 121.204C112.367 121.036 112.264 120.884 112.116 120.768C112.09 120.684 112.072 120.623 112.047 120.539C112.233 120.119 112.561 119.756 112.989 119.497C113.416 119.239 113.923 119.096 114.445 119.087C114.967 119.079 115.48 119.205 115.919 119.449C116.357 119.694 116.701 120.046 116.906 120.46C118.088 122.784 119.611 125.187 118.895 127.763C123.712 118.74 121.917 107.58 114.567 99.9579C112.548 99.0207 110.902 97.3395 110.456 95.3754C111.453 95.6576 112.685 94.9504 111.927 94.054C111.6 93.7117 111.269 93.3721 110.941 93.0298C114.678 89.5323 119.237 94.9435 115.133 99.6564C116.509 101.115 117.704 102.693 118.699 104.365C118.453 102.583 118.703 100.775 119.426 99.092C120.16 97.5226 121.554 96.1945 122.78 94.8329C124.27 93.1739 127.383 93.9081 127.609 95.996C126.222 96.4019 126.06 98.137 127.655 98.3612C127.281 102.252 124.374 105.849 120.336 107.587C121.874 111.199 122.502 115.052 122.177 118.889C122.844 114.402 128.412 113.269 132.292 111.456C132.539 111.316 132.827 111.242 133.122 111.242C133.417 111.241 133.706 111.315 133.953 111.453C134.2 111.592 134.395 111.79 134.514 112.022C134.633 112.255 134.671 112.512 134.624 112.763C134.087 112.956 133.575 113.195 133.093 113.475C132.868 113.609 132.695 113.799 132.6 114.02C132.505 114.242 132.492 114.483 132.562 114.711C132.632 114.939 132.782 115.143 132.991 115.294C133.201 115.446 133.46 115.538 133.732 115.558C131.813 119.768 126.761 122.627 121.541 122.654C121.06 124.537 120.354 126.373 119.433 128.13L111.685 128.194C111.656 128.12 111.631 128.043 111.605 127.969C112.322 128.002 113.042 127.959 113.747 127.842C111.829 125.92 110.35 124.944 111.425 122.232L111.425 122.232Z" fill="#F2F2F2"/>
<path d="M29.1748 58.1245C29.1748 58.1245 22.7893 72.6619 22.6862 74.2888C22.583 75.9156 20.7619 96.4879 19.2347 97.6832C17.7074 98.8785 13.0381 117.41 16.6713 118.86C20.3044 120.309 31.7668 117.908 31.7668 117.908L35.7544 96.0176L37.1089 79.2468C37.1089 79.2468 41.2328 118.739 48.7124 118.623C56.192 118.507 65.3063 116.127 65.3063 116.127L54.8374 92.2106C54.8374 92.2106 54.9855 63.8961 52.5589 58.1852C50.1323 52.4744 29.1748 58.1245 29.1748 58.1245Z" fill="#2F2E41"/>
<path d="M47.1525 20.9625L39.3274 21.6119L38.0668 25.1181C38.0668 25.1181 31.5182 28.3766 32.9682 29.8569C34.4183 31.3373 32.644 41.3136 32.644 41.3136L33.0447 49.4115C33.0447 49.4115 32.6142 55.0219 31.326 56.3145C30.0377 57.6072 26.6673 60.777 29.0488 59.2605C37.3989 53.9432 51.994 58.4298 51.994 58.4298L49.909 46.859C49.909 46.859 54.6448 27.9148 52.7759 26.3148C50.9069 24.7149 49.1435 24.5127 49.1435 24.5127L47.1525 20.9625Z" fill="#00A2FF"/>
<path d="M3.55866 58.0058C3.98635 57.9409 4.39138 57.8003 4.74522 57.5939C5.09905 57.3875 5.39309 57.1204 5.60662 56.8114C5.82014 56.5023 5.94796 56.1589 5.98108 55.8052C6.0142 55.4515 5.9518 55.0962 5.79828 54.7643L20.1562 44.8323L14.8954 43.5375L1.75332 53.3899C1.08658 53.6371 0.554235 54.0752 0.257153 54.621C-0.0399278 55.1669 -0.0810996 55.7827 0.141432 56.3516C0.363963 56.9206 0.83474 57.4033 1.46456 57.7081C2.09437 58.013 2.83947 58.1189 3.55866 58.0058Z" fill="#FFB8B8"/>
<path d="M38.1633 31.4856C38.1633 31.4856 40.7534 26.687 34.5526 27.5067C28.3519 28.3264 4.8374 50.1447 4.8374 50.1447L8.77258 54.825L32.5376 35.7776L38.1633 31.4856Z" fill="#FC8585"/>
<path d="M28.6263 22.6793L2.99393 51.26C2.55051 51.756 2.35112 52.3848 2.43944 53.0086C2.52777 53.6324 2.89661 54.2002 3.46514 54.5877C9.41765 67.1668 27.2259 76.4948 48.1748 84.9615C48.7446 85.3478 49.4672 85.5216 50.1841 85.4447C50.9009 85.3678 51.5534 85.0465 51.9984 84.5514L77.6308 55.9708C78.0746 55.4749 78.2743 54.846 78.186 54.2221C78.0976 53.5982 77.7285 53.0303 77.1595 52.643C59.5795 44.0033 44.4694 33.9934 32.4498 22.2692C31.8799 21.8833 31.1574 21.7098 30.4407 21.7866C29.724 21.8635 29.0716 22.1845 28.6263 22.6793Z" fill="#E6E6E6"/>
<path d="M76.7873 55.3936L68.8963 64.2637C64.0761 69.6495 57.0226 73.1427 49.2765 73.9803C41.5305 74.8179 33.7214 72.9318 27.5551 68.734L5.44096 53.5886C5.11336 53.3641 4.90061 53.0348 4.84938 52.6729C4.79814 52.311 4.91261 51.9461 5.16768 51.6581L30.2181 23.4995C30.4745 23.2125 36.0761 23.5438 36.4886 23.4995C36.161 23.2752 36.9012 23.4552 36.4886 23.4995C47.6752 36.1738 64.2864 45.5196 82.2234 53.1835C82.5504 53.408 77.0556 54.0184 77.1064 54.38C77.1572 54.7416 77.0424 55.1061 76.7873 55.3936Z" fill="#00A2FF"/>
<path d="M33.0562 11.6894C33.0556 12.8109 33.3953 13.9155 34.0453 14.906C34.6953 15.8965 35.6358 16.7427 36.7842 17.3704C37.9327 17.998 39.2539 18.3879 40.6319 18.5058C42.01 18.6237 43.4027 18.466 44.6879 18.0465C45.973 17.6271 47.1113 16.9587 48.0028 16.1001C48.8943 15.2414 49.5118 14.2188 49.801 13.1219C50.0902 12.025 50.0423 10.8875 49.6615 9.80908C49.2807 8.73069 48.5787 7.74444 47.617 6.93692L47.5764 6.90406C47.5087 6.84649 47.4409 6.78894 47.3698 6.73411C47.3694 6.73411 47.3689 6.73405 47.3685 6.73391C47.3681 6.73377 47.3677 6.73357 47.3674 6.73332C47.3671 6.73306 47.3668 6.73275 47.3667 6.73242C47.3665 6.73208 47.3664 6.73173 47.3664 6.73136C47.2784 6.66559 47.1904 6.59981 47.0989 6.53678C45.8756 5.66875 44.3692 5.10447 42.7599 4.91149C41.1506 4.71852 39.5067 4.90503 38.0251 5.44869C36.5434 5.99236 35.2867 6.87014 34.4054 7.97694C33.5242 9.08375 33.0557 10.3727 33.0562 11.6894V11.6894Z" fill="#2F2E41"/>
<path d="M43.9405 20.1562C47.7254 20.1562 50.7937 17.2685 50.7937 13.7062C50.7937 10.144 47.7254 7.25623 43.9405 7.25623C40.1556 7.25623 37.0874 10.144 37.0874 13.7062C37.0874 17.2685 40.1556 20.1562 43.9405 20.1562Z" fill="#FFB8B8"/>
<path d="M36.4814 15.1438C35.8426 12.6446 36.7659 9.84476 38.7788 8.17636C39.7912 7.3538 41.0504 6.79592 42.4116 6.56685C43.7729 6.33777 45.1809 6.4468 46.474 6.88138C46.6383 6.93898 46.8026 7.00202 46.9639 7.06782L47.0389 7.0985V7.10803C47.0535 7.11678 47.068 7.12598 47.0826 7.13528C47.113 7.16007 47.1501 7.17786 47.1905 7.18701C47.7579 7.17412 48.3221 7.26547 48.846 7.45508C49.3699 7.64469 49.8417 7.92827 50.2306 8.28724C51.2434 9.24136 51.7203 10.7833 51.5741 12.6289L51.5695 12.6866L51.5129 12.7173C50.7461 13.1392 49.9504 13.5201 49.1302 13.8579C46.2614 15.029 43.6424 15.246 41.1253 14.5204L41.0791 14.5071L40.0226 12.9699C39.8057 14.0301 39.9215 17.5469 38.677 17.7375L36.5084 15.2498L36.4814 15.1438Z" fill="#2F2E41"/>
<path d="M21.6822 20.0635C23.9203 19.0337 21.0418 15.2964 21.6202 13.1113C22.1986 10.9261 26.3638 10.2233 26.6292 7.99068C26.8945 5.75804 27.5187 3.4553 29.1715 1.76115C30.2276 0.678596 31.7837 -0.120587 33.3859 0.0150106C33.928 0.060888 34.4527 0.210375 34.9241 0.453289C35.3955 0.696203 35.8027 1.02684 36.1179 1.42268C36.4331 1.81851 36.6489 2.27025 36.7505 2.74712C36.8522 3.22399 36.8374 3.7148 36.7071 4.1861C37.1632 3.60992 38.3438 3.73479 38.636 4.39018C38.8958 4.97282 38.3219 5.67856 37.6465 5.73011C36.7627 6.70302 35.7507 7.73553 34.3661 7.93179C34.1455 7.97695 33.9163 7.97684 33.6957 7.93146C33.4752 7.88608 33.2691 7.79663 33.093 7.66985C32.7673 7.39101 32.7419 6.83353 33.1283 6.62515C31.3883 7.24128 30.3682 8.91829 30.11 10.5713C29.8519 12.2243 30.209 13.8968 30.4444 15.5525C30.6798 17.2082 30.7812 18.95 30.0529 20.4875C29.1925 22.3041 27.2114 23.6061 25.0494 24.0236C22.8874 24.4412 20.585 24.0331 18.628 23.1137C16.6711 22.1942 15.0392 20.7906 13.7061 19.2169C16.0024 20.6705 19.1795 21.215 21.6822 20.0635Z" fill="#2F2E41"/>
<path d="M40.3124 12.7493C37.7946 16.5183 42.5356 22.8688 37.7575 24.1875L38.1511 23.8455C41.0353 20.7628 35.007 14.238 37.8912 11.1552C38.3393 10.703 38.724 10.2061 39.0371 9.67505" fill="#2F2E41"/>
<path d="M36.2812 15.3187C36.2812 15.3187 38.3818 8.49264 47.3861 6.91713C47.3962 6.91422 47.4301 6.90243 47.474 6.88478C47.5011 6.87004 47.5349 6.85531 47.5688 6.84059C47.4673 6.79052 47.3692 6.74637 47.2677 6.70216C47.2673 6.70216 47.2668 6.70209 47.2664 6.70195C47.266 6.7018 47.2656 6.70158 47.2653 6.70131C47.265 6.70103 47.2647 6.70071 47.2646 6.70034C47.2644 6.69998 47.2643 6.6996 47.2643 6.69921C47.1764 6.62854 47.0884 6.55786 46.9971 6.49014L46.74 6.49898C46.74 6.49898 37.7053 5.25334 36.2812 15.3187Z" fill="#00A2FF"/>
</svg>
