<svg width="304" height="286" viewBox="0 0 304 286" fill="none" xmlns="http://www.w3.org/2000/svg">
<g clip-path="url(#clip0_45_4334)">
<path d="M193.896 64.1108H177.721V197.251C177.721 199.34 177.295 201.408 176.467 203.338C175.639 205.268 174.425 207.022 172.895 208.499C171.365 209.976 169.549 211.147 167.55 211.947C165.551 212.746 163.409 213.158 161.245 213.158H37.5796V213.31C37.5796 215.399 38.0057 217.467 38.8337 219.397C39.6617 221.327 40.8753 223.081 42.4052 224.558C43.9352 226.035 45.7515 227.207 47.7504 228.006C49.7494 228.805 51.8918 229.217 54.0555 229.217H193.896C196.06 229.217 198.202 228.805 200.201 228.006C202.2 227.207 204.016 226.035 205.546 224.558C207.076 223.081 208.29 221.327 209.118 219.397C209.946 217.467 210.372 215.399 210.372 213.31V80.0177C210.372 75.799 208.636 71.753 205.546 68.7699C202.456 65.7867 198.266 64.1108 193.896 64.1108Z" fill="#F2F2F2"/>
<path d="M270.574 275.691C270.86 275.703 271.143 275.631 271.386 275.483C271.628 275.335 271.817 275.118 271.928 274.863C272.038 274.608 272.065 274.326 272.004 274.055C271.943 273.785 271.797 273.539 271.587 273.351L271.491 272.983C271.504 272.954 271.516 272.925 271.529 272.895C271.818 272.237 272.301 271.676 272.919 271.283C273.536 270.89 274.26 270.681 275 270.684C275.74 270.686 276.463 270.9 277.077 271.298C277.692 271.696 278.171 272.26 278.454 272.92C279.587 275.554 281.029 278.192 281.384 280.977C281.541 282.208 281.475 283.456 281.189 284.665C283.85 279.062 285.231 272.973 285.24 266.809C285.241 265.262 285.152 263.717 284.973 262.18C284.826 260.92 284.622 259.669 284.361 258.427C282.935 251.687 279.873 245.37 275.428 239.995C273.276 238.861 271.536 237.118 270.442 235C270.046 234.239 269.766 233.427 269.61 232.588C269.853 232.619 270.526 229.05 270.342 228.831C270.681 228.335 271.286 228.089 271.656 227.605C273.493 225.2 276.024 225.62 277.346 228.888C280.168 230.264 280.196 232.545 278.464 234.739C277.362 236.135 277.21 238.024 276.243 239.518C276.343 239.641 276.446 239.76 276.546 239.883C278.364 242.141 279.949 244.565 281.278 247.121C280.955 244.257 281.34 241.361 282.403 238.669C283.48 236.161 285.499 234.048 287.276 231.88C287.746 231.297 288.385 230.862 289.111 230.63C289.837 230.398 290.618 230.379 291.356 230.575C292.093 230.771 292.754 231.174 293.254 231.733C293.754 232.291 294.072 232.981 294.166 233.714C294.17 233.746 294.173 233.778 294.177 233.81C293.913 233.953 293.654 234.106 293.401 234.267C293.084 234.472 292.838 234.765 292.695 235.108C292.553 235.45 292.521 235.826 292.603 236.186C292.686 236.546 292.88 236.874 293.158 237.126C293.437 237.378 293.788 237.543 294.166 237.599L294.205 237.605C294.111 238.524 293.944 239.434 293.707 240.329C295.988 248.844 291.064 251.945 284.034 252.084C283.879 252.161 283.728 252.238 283.573 252.311C284.908 255.963 285.745 259.767 286.064 263.628C286.244 265.906 286.233 268.194 286.032 270.47L286.044 270.389C286.553 267.858 287.951 265.575 290.003 263.924C293.05 261.508 297.354 260.618 300.641 258.675C300.99 258.459 301.397 258.343 301.812 258.342C302.227 258.341 302.634 258.455 302.984 258.67C303.334 258.885 303.614 259.192 303.789 259.555C303.965 259.918 304.029 260.322 303.975 260.72L303.961 260.805C303.471 260.997 302.994 261.219 302.533 261.469C302.269 261.613 302.01 261.766 301.757 261.927C301.44 262.132 301.194 262.425 301.051 262.767C300.909 263.11 300.877 263.485 300.959 263.845C301.042 264.206 301.235 264.533 301.514 264.786C301.793 265.038 302.144 265.203 302.522 265.259L302.561 265.265C302.589 265.269 302.612 265.272 302.64 265.276C301.803 267.206 300.628 268.983 299.167 270.528C297.741 277.961 291.616 278.666 285.065 276.501H285.061C284.342 279.517 283.301 282.453 281.953 285.26H270.852C270.812 285.141 270.776 285.018 270.74 284.899C271.768 284.962 272.8 284.902 273.812 284.723C272.989 283.747 272.165 282.763 271.341 281.788C271.323 281.769 271.306 281.75 271.289 281.73C270.872 281.231 270.45 280.735 270.032 280.236L270.032 280.235C270.01 278.704 270.192 277.177 270.573 275.691L270.574 275.691Z" fill="#F2F2F2"/>
<path d="M148.3 46.0002C148.705 46.5931 149.239 47.0939 149.865 47.468C150.49 47.8421 151.192 48.0805 151.923 48.1668C152.653 48.2531 153.394 48.1852 154.094 47.9678C154.795 47.7504 155.438 47.3887 155.98 46.9078L179.06 56.9612L183.51 51.4813L156.006 39.7342C155.1 38.9145 153.914 38.4442 152.672 38.4126C151.431 38.3809 150.22 38.7901 149.27 39.5624C148.321 40.3348 147.697 41.4168 147.518 42.6033C147.339 43.7898 147.618 44.9985 148.3 46.0002H148.3Z" fill="#FFCBA5"/>
<path d="M247.352 52.2691L249.641 64.793C249.747 65.3773 249.727 65.9767 249.579 66.5527C249.432 67.1287 249.161 67.6686 248.785 68.1378C248.409 68.6069 247.935 68.9949 247.395 69.2768C246.854 69.5588 246.258 69.7285 245.646 69.775L206.749 72.7281L161.027 52.9721L166.488 42.9636L206.178 55.0985L247.352 52.2691Z" fill="#00A2FF"/>
<path d="M156.316 43.2935H16.4759C7.3765 43.2935 0 50.4152 0 59.2004V192.492C0 201.278 7.3765 208.399 16.4759 208.399H156.316C165.416 208.399 172.792 201.278 172.792 192.492V59.2004C172.792 50.4152 165.416 43.2935 156.316 43.2935Z" fill="#F2F2F2"/>
<path d="M16.4758 46.5647C14.7571 46.5647 13.0552 46.8915 11.4674 47.5265C9.87951 48.1615 8.43674 49.0923 7.22145 50.2656C6.00615 51.4389 5.04212 52.8319 4.38441 54.3649C3.72669 55.8979 3.38818 57.541 3.38818 59.2003V192.493C3.38818 195.844 4.76705 199.058 7.22145 201.427C9.67585 203.797 13.0047 205.128 16.4758 205.128H105.725C114.088 205.128 122.368 203.538 130.094 200.448C137.82 197.359 144.84 192.83 150.753 187.121C156.666 181.412 161.356 174.635 164.557 167.176C167.757 159.717 169.404 151.722 169.404 143.649V59.2003C169.404 57.541 169.065 55.8979 168.407 54.3649C167.75 52.8319 166.786 51.4389 165.57 50.2656C164.355 49.0923 162.912 48.1615 161.325 47.5265C159.737 46.8915 158.035 46.5647 156.316 46.5647H16.4758Z" fill="white"/>
<path d="M125.488 87.0166H46.9983C46.2781 87.0166 45.5874 86.7403 45.0781 86.2487C44.5688 85.757 44.2827 85.0901 44.2827 84.3948C44.2827 83.6994 44.5688 83.0325 45.0781 82.5409C45.5874 82.0492 46.2781 81.7729 46.9983 81.7729H125.488C126.208 81.7729 126.899 82.0492 127.408 82.5409C127.917 83.0325 128.203 83.6994 128.203 84.3948C128.203 85.0901 127.917 85.757 127.408 86.2487C126.899 86.7403 126.208 87.0166 125.488 87.0166Z" fill="#F2F2F2"/>
<path d="M125.488 142.926H46.9983C46.2781 142.926 45.5874 142.65 45.0781 142.158C44.5688 141.667 44.2827 141 44.2827 140.304C44.2827 139.609 44.5688 138.942 45.0781 138.451C45.5874 137.959 46.2781 137.683 46.9983 137.683H125.488C126.208 137.683 126.899 137.959 127.408 138.451C127.917 138.942 128.203 139.609 128.203 140.304C128.203 141 127.917 141.667 127.408 142.158C126.899 142.65 126.208 142.926 125.488 142.926Z" fill="#F2F2F2"/>
<path d="M157.361 114.99H15.1257C14.4055 114.99 13.7148 114.714 13.2055 114.222C12.6963 113.73 12.4102 113.063 12.4102 112.368C12.4102 111.673 12.6963 111.006 13.2055 110.514C13.7148 110.022 14.4055 109.746 15.1257 109.746H157.361C158.081 109.746 158.772 110.022 159.281 110.514C159.791 111.006 160.077 111.673 160.077 112.368C160.077 113.063 159.791 113.73 159.281 114.222C158.772 114.714 158.081 114.99 157.361 114.99Z" fill="#F2F2F2"/>
<path d="M242.437 107.469L228.268 136.614L282.775 131.284L271.397 103.306L242.437 107.469Z" fill="#FFCBA5"/>
<path d="M255.11 274.98L249.942 274.937L247.654 255.244L255.281 255.306L255.11 274.98Z" fill="#FFCBA5"/>
<path d="M238.556 282.914C238.552 283.505 238.79 284.074 239.22 284.496C239.649 284.918 240.234 285.158 240.847 285.164L251.122 285.247L252.921 281.726L253.581 285.265L257.458 285.298L256.479 272.679L255.13 272.593L249.629 272.226L247.854 272.112L247.823 275.682L239.569 281.087C239.259 281.29 239.006 281.562 238.829 281.88C238.653 282.198 238.559 282.553 238.556 282.914Z" fill="#2F2E41"/>
<path d="M197.918 275.002L192.991 273.496L196.797 254.023L204.069 256.245L197.918 275.002Z" fill="#FFCBA5"/>
<path d="M179.681 277.89C179.496 278.455 179.551 279.066 179.833 279.591C180.115 280.116 180.602 280.512 181.185 280.691L190.982 283.685L193.772 280.83L193.327 284.4L197.023 285.532L199.927 273.192L198.664 272.727L193.517 270.816L191.855 270.203L190.739 273.607L181.204 276.432C180.847 276.538 180.522 276.726 180.256 276.98C179.991 277.234 179.793 277.546 179.681 277.89Z" fill="#2F2E41"/>
<path d="M280.292 123.088L230.732 131.856C230.732 131.856 222.783 137.596 224.91 139.652C227.036 141.708 227.366 141.39 225.969 142.739C224.572 144.088 221.551 145.891 221.521 147.071C221.492 148.251 199.313 201.187 199.313 201.187C199.313 201.187 201.778 199.997 199.93 201.781C198.081 203.566 198.081 205.04 198.081 205.04L189.457 261.26L203.464 262.056L217.179 210.802L247.772 162.919C247.772 162.919 250.808 205.618 250.935 208.458C251.062 211.298 252.91 207.729 251.062 211.298C249.214 214.867 247.982 212.488 249.214 214.867C250.446 217.246 244.776 265.682 244.776 265.682H257.561L284.981 165.288C284.981 165.288 294.737 136.586 280.292 123.088Z" fill="#2F2E41"/>
<path d="M265.692 42.7855L245.84 40.7939L240.697 47.2409L234.705 50.3221C232.169 51.6259 230.076 53.6074 228.676 56.0294C227.276 58.4515 226.628 61.2116 226.81 63.9797L233.813 103.306C233.813 103.306 227.898 116.165 231.964 119.365C236.031 122.566 226.016 135.726 234.705 131.736C243.394 127.747 283.713 127.097 283.713 127.097L275.704 105.09L281.687 83.4656L282.346 65.3335C282.469 61.9452 281.427 58.6128 279.384 55.8558C277.34 53.0987 274.409 51.0718 271.048 50.0911L270.211 49.847L265.692 42.7855Z" fill="#00A2FF"/>
<path d="M293.024 28.0918C293.154 33.4942 291.062 38.7253 288.058 43.32C287.166 40.6377 285.561 38.1964 283.887 35.8692C284.731 40.9036 283.832 46.066 281.331 50.5577C281.243 50.6186 281.151 50.6751 281.057 50.7271C278.608 52.1493 275.504 52.7253 272.855 51.6981C278.328 46.0021 279.025 36.5646 274.436 30.1755C273.137 28.3627 271.457 26.7593 270.652 24.6961C269.381 21.4043 270.603 17.7799 271.373 14.3478C272.094 11.1536 272.22 7.35246 270 5.01149C270.237 4.68435 270.56 4.42394 270.936 4.25695C271.311 4.08996 271.726 4.0224 272.138 4.06119C273.506 4.24782 274.502 5.39627 275.137 6.57909C275.771 7.76188 276.19 9.07282 277.074 10.0945C278.711 12.0067 281.5 12.4588 283.85 13.4666C289.541 15.9139 292.887 22.0804 293.024 28.0918Z" fill="#2F2E41"/>
<path d="M146.406 285.292C146.406 285.385 146.425 285.477 146.461 285.563C146.498 285.649 146.552 285.728 146.62 285.793C146.688 285.859 146.769 285.911 146.858 285.947C146.948 285.982 147.043 286 147.139 286H303.18C303.375 286 303.561 285.925 303.699 285.793C303.836 285.66 303.913 285.48 303.913 285.292C303.913 285.105 303.836 284.924 303.699 284.792C303.561 284.659 303.375 284.584 303.18 284.584H147.139C147.043 284.584 146.948 284.602 146.858 284.638C146.769 284.673 146.688 284.725 146.62 284.791C146.552 284.857 146.498 284.935 146.461 285.021C146.425 285.107 146.406 285.199 146.406 285.292Z" fill="#CCCCCC"/>
<path d="M294.253 153.304C297.315 153.304 299.797 150.907 299.797 147.951C299.797 144.994 297.315 142.598 294.253 142.598C291.19 142.598 288.708 144.994 288.708 147.951C288.708 150.907 291.19 153.304 294.253 153.304Z" fill="#F9864A"/>
<path d="M245.12 25.0029C245.446 23.904 243.204 30.6214 244.286 30.7427C249.212 31.2883 255.975 34.1289 259.406 35.454C259.56 35.4367 259.715 35.4194 259.865 35.3977C260.233 35.3587 260.592 35.3025 260.947 35.2375C268.936 33.7781 272.008 21.9292 272.008 21.8209C272.008 21.2883 270.684 6.65815 268.598 6.44165C268.05 6.38426 267.5 6.35534 266.948 6.35503H261.772C260.701 6.13219 259.615 5.98027 258.523 5.90032H258.514C248.093 5.13378 239.876 11.266 240.644 18.7278C240.649 18.7364 240.658 18.7451 240.662 18.7537C240.885 19.0742 241.081 19.3774 241.253 19.6675C241.421 19.9403 241.562 20.2002 241.685 20.447C242.635 22.3525 240.193 24.7502 241.812 25.1978C243.965 25.793 236.149 45.3571 244.672 45.3571C240.526 46.495 244.223 28.0343 245.12 25.0029Z" fill="#2F2E41"/>
<path d="M254.423 36.482C261.192 36.482 266.679 31.1845 266.679 24.6497C266.679 18.1149 261.192 12.8174 254.423 12.8174C247.654 12.8174 242.167 18.1149 242.167 24.6497C242.167 31.1845 247.654 36.482 254.423 36.482Z" fill="#FFCBA5"/>
<path d="M240.645 19.373C240.849 19.4769 241.049 19.5722 241.254 19.6675C241.467 19.7671 241.681 19.8667 241.894 19.9576C245.998 21.7549 249.338 21.9541 251.365 19.373C251.42 18.0149 251.735 16.6784 252.297 15.4321C252.198 16.8249 252.578 18.2103 253.379 19.373H257.46C261.663 22.0667 263.822 22.3482 260.904 31.1914C260.091 33.6555 256.856 47.9944 258.129 50.1208C258.497 50.0818 262.413 34.3763 262.768 34.3114C270.757 32.8519 275.833 20.1439 275.184 19.425C275.187 17.3806 274.7 15.3633 273.761 13.5309C272.573 11.2094 270.722 9.26475 268.426 7.92704C267.057 7.28628 265.63 6.76874 264.163 6.38098C264.126 6.37231 264.095 6.36364 264.058 6.355C263.608 6.23806 263.149 6.1298 262.69 6.03885C261.742 5.84554 260.783 5.70528 259.818 5.61878C259.75 5.61445 259.682 5.61011 259.618 5.61011C259.233 5.61098 258.855 5.71115 258.523 5.90028C258.518 5.90028 258.518 5.90459 258.514 5.90459C258.277 6.03837 258.07 6.21652 257.905 6.4286C257.615 6.78543 257.458 7.22645 257.46 7.68017H252.915C252.747 7.68017 252.579 7.68449 252.411 7.69314C249.377 7.79322 246.492 8.98247 244.319 11.0282C242.146 13.0739 240.843 15.8288 240.663 18.7537C240.649 18.9616 240.645 19.1651 240.645 19.373Z" fill="#2F2E41"/>
<path d="M267.44 15.5904C271.899 15.5904 275.514 12.1004 275.514 7.79521C275.514 3.49004 271.899 0 267.44 0C262.981 0 259.366 3.49004 259.366 7.79521C259.366 12.1004 262.981 15.5904 267.44 15.5904Z" fill="#2F2E41"/>
<path d="M294.315 150.158C294.709 149.558 294.963 148.883 295.06 148.179C295.157 147.475 295.095 146.758 294.877 146.08C294.659 145.401 294.292 144.777 293.799 144.249C293.307 143.721 292.701 143.303 292.025 143.023L292.065 118.577L285.064 116.904L285.236 145.939C284.833 147.073 284.875 148.311 285.354 149.417C285.833 150.523 286.716 151.422 287.835 151.942C288.954 152.462 290.231 152.568 291.426 152.239C292.62 151.91 293.648 151.17 294.315 150.158V150.158Z" fill="#FFCBA5"/>
<path d="M259.646 60.3568L270.54 53.2085C271.048 52.875 271.623 52.6478 272.228 52.5415C272.832 52.4352 273.453 52.4521 274.051 52.5912C274.648 52.7303 275.209 52.9884 275.697 53.349C276.185 53.7096 276.589 54.1648 276.884 54.6853L295.615 87.7306L295.686 136.093L283.992 135.385L279.192 95.4575L259.646 60.3568Z" fill="#00A2FF"/>
<path d="M175.974 170.035H59.5391C57.0066 170.035 54.5778 171.006 52.787 172.735C50.9963 174.464 49.9902 176.809 49.9902 179.254C49.9902 181.699 50.9963 184.044 52.787 185.773C54.5778 187.502 57.0066 188.473 59.5391 188.473H175.974C178.506 188.473 180.935 187.502 182.726 185.773C184.517 184.044 185.523 181.699 185.523 179.254C185.523 176.809 184.517 174.464 182.726 172.735C180.935 171.006 178.506 170.035 175.974 170.035Z" fill="white"/>
<path d="M175.974 189.068H59.539C56.843 189.068 54.2576 188.034 52.3513 186.194C50.445 184.353 49.374 181.857 49.374 179.254C49.374 176.651 50.445 174.155 52.3513 172.315C54.2576 170.474 56.843 169.44 59.539 169.44H175.974C178.67 169.44 181.255 170.474 183.161 172.315C185.068 174.155 186.139 176.651 186.139 179.254C186.139 181.857 185.068 184.353 183.161 186.194C181.255 188.034 178.67 189.068 175.974 189.068ZM59.539 170.63C57.1698 170.63 54.8977 171.538 53.2225 173.156C51.5473 174.773 50.6061 176.967 50.6061 179.254C50.6061 181.541 51.5473 183.735 53.2225 185.352C54.8977 186.97 57.1698 187.878 59.539 187.878H175.974C178.343 187.878 180.615 186.97 182.29 185.352C183.965 183.735 184.906 181.541 184.906 179.254C184.906 176.967 183.965 174.773 182.29 173.156C180.615 171.538 178.343 170.63 175.974 170.63H59.539Z" fill="#00A2FF"/>
<path d="M182.839 210.268H131.456C130.736 210.268 130.045 209.991 129.536 209.5C129.027 209.008 128.741 208.341 128.741 207.646C128.741 206.95 129.027 206.284 129.536 205.792C130.045 205.3 130.736 205.024 131.456 205.024H182.839C183.56 205.024 184.25 205.3 184.76 205.792C185.269 206.284 185.555 206.95 185.555 207.646C185.555 208.341 185.269 209.008 184.76 209.5C184.25 209.991 183.56 210.268 182.839 210.268Z" fill="#00A2FF"/>
</g>
<defs>
<clipPath id="clip0_45_4334">
<rect width="304" height="286" fill="white"/>
</clipPath>
</defs>
</svg>
