<svg width="36" height="36" viewBox="0 0 36 36" fill="none" xmlns="http://www.w3.org/2000/svg">
<circle cx="18" cy="18" r="18" fill="#F7F7F7"/>
<path d="M29.25 18.27C29.25 17.48 29.1808 16.73 29.062 16H17.8774V20.51H24.2813C23.9943 21.99 23.153 23.24 21.9059 24.09V27.09H25.7264C27.9633 25 29.25 21.92 29.25 18.27Z" fill="#4285F4"/>
<path d="M17.8774 30C21.0843 30 23.7666 28.92 25.7264 27.09L21.9058 24.09C20.8369 24.81 19.4809 25.25 17.8774 25.25C14.7794 25.25 12.1565 23.14 11.2162 20.29H7.27686V23.38C9.22673 27.3 13.2353 30 17.8774 30Z" fill="#34A853"/>
<path d="M11.2162 20.29C10.9687 19.57 10.84 18.8 10.84 18C10.84 17.2 10.9786 16.43 11.2162 15.71V12.62H7.27682C6.4652 14.24 6 16.06 6 18C6 19.94 6.4652 21.76 7.27682 23.38L11.2162 20.29Z" fill="#FBBC05"/>
<path d="M17.8774 10.75C19.6293 10.75 21.1932 11.36 22.4304 12.55L25.8155 9.13C23.7666 7.19 21.0843 6 17.8774 6C13.2353 6 9.22673 8.7 7.27686 12.62L11.2162 15.71C12.1565 12.86 14.7794 10.75 17.8774 10.75Z" fill="#EA4335"/>
</svg>
