<svg width="321" height="324" viewBox="0 0 321 324" fill="none" xmlns="http://www.w3.org/2000/svg">
<path d="M160.5 324C249.142 324 321 319.775 321 314.564C321 309.352 249.142 305.127 160.5 305.127C71.8583 305.127 0 309.352 0 314.564C0 319.775 71.8583 324 160.5 324Z" fill="#E6E6E6"/>
<path d="M181.947 74.7524H180.22V27.4038C180.22 20.1359 177.336 13.1656 172.202 8.0264C167.068 2.88718 160.104 0 152.844 0H52.6284C45.3676 0 38.4041 2.88718 33.27 8.0264C28.1358 13.1656 25.2515 20.1359 25.2515 27.4038V287.16C25.2515 294.428 28.1358 301.398 33.27 306.537C38.4041 311.677 45.3676 314.564 52.6284 314.564H152.844C160.104 314.564 167.068 311.677 172.202 306.537C177.336 301.398 180.22 294.428 180.22 287.16V108.456H181.947V74.7524Z" fill="#3F3D56"/>
<path d="M174.394 27.5954V286.969C174.393 292.397 172.239 297.602 168.405 301.44C164.571 305.278 159.371 307.434 153.948 307.434H53.2521C47.8299 307.434 42.6297 305.278 38.7956 301.44C34.9615 297.602 32.8074 292.397 32.8071 286.969V27.5954C32.8073 22.1676 34.9614 16.9621 38.7956 13.1241C42.6299 9.28612 47.8302 7.12989 53.2526 7.12976H65.4685C64.8682 8.60621 64.6396 10.2077 64.8027 11.7934C64.9658 13.379 65.5158 14.9003 66.4041 16.2233C67.2925 17.5463 68.492 18.6304 69.8972 19.3805C71.3024 20.1305 72.8702 20.5234 74.4627 20.5245H131.875C133.468 20.5234 135.035 20.1306 136.441 19.3806C137.846 18.6306 139.046 17.5465 139.934 16.2235C140.822 14.9005 141.372 13.3792 141.535 11.7935C141.699 10.2078 141.47 8.60625 140.87 7.12976H153.948C159.371 7.12989 164.571 9.28612 168.405 13.1241C172.239 16.9621 174.393 22.1676 174.394 27.5954Z" fill="white"/>
<path d="M79.3244 223.974H77.2065L77.9136 182.568H78.6206L79.3244 223.974Z" fill="#E6E6E6"/>
<path d="M81.0886 156.5L84.507 151.212C83.4932 148.409 82.3224 145.665 81 142.994L78.7898 144.782L80.5399 142.074C78.8718 138.788 77.5595 136.717 77.5595 136.717C77.5595 136.717 70.7049 147.53 68.4136 158.981L72.8001 165.766L67.945 161.84C67.7721 163.174 67.6832 164.517 67.6787 165.862C67.6787 179.422 72.103 190.414 77.5604 190.414C83.0179 190.414 87.4421 179.421 87.4421 165.862C87.4421 161.659 86.4919 157.261 85.1796 153.192L81.0886 156.5Z" fill="#CCCCCC"/>
<path d="M134.455 223.974H132.337L133.044 182.568H133.751L134.455 223.974Z" fill="#E6E6E6"/>
<path d="M136.219 156.5L139.637 151.212C138.624 148.409 137.453 145.665 136.13 142.994L133.92 144.782L135.67 142.074C134.002 138.788 132.69 136.717 132.69 136.717C132.69 136.717 125.834 147.531 123.545 158.981L127.929 165.765L123.073 161.839C122.901 163.173 122.812 164.516 122.807 165.861C122.807 179.421 127.231 190.413 132.689 190.413C138.146 190.413 142.571 179.42 142.571 165.861C142.571 161.658 141.62 157.26 140.308 153.191L136.219 156.5Z" fill="#CCCCCC"/>
<path d="M77.7129 86.7213C88.4592 86.7213 97.1708 78.0011 97.1708 67.2442C97.1708 56.4873 88.4592 47.7671 77.7129 47.7671C66.9665 47.7671 58.2549 56.4873 58.2549 67.2442C58.2549 78.0011 66.9665 86.7213 77.7129 86.7213Z" fill="#E6E6E6"/>
<path d="M104.664 217.945H100.297L101.753 132.57H103.208L104.664 217.945Z" fill="#E6E6E6"/>
<path d="M108.302 78.8196L115.35 67.9176C113.26 62.138 110.846 56.4811 108.119 50.9737L103.561 54.6582L107.17 49.0755C103.729 42.2991 101.025 38.0295 101.025 38.0295C101.025 38.0295 86.8898 60.3263 82.1671 83.9338L91.2094 97.9259L81.1966 89.8307C80.84 92.5808 80.6566 95.3505 80.6475 98.1236C80.6475 126.083 89.7698 148.748 101.023 148.748C112.276 148.748 121.398 126.083 121.398 98.1236C121.398 89.4561 119.439 80.388 116.737 71.9994L108.302 78.8196Z" fill="#CCCCCC"/>
<path d="M174.394 230.252V288.29C174.394 300.062 165.24 309.605 153.948 309.605H53.2521C41.9605 309.605 32.8066 300.063 32.8062 288.29V235.91C50.2646 214.544 75.5067 201.775 102.409 200.7C129.311 199.625 155.417 210.342 174.394 230.252Z" fill="#E6E6E6"/>
<path opacity="0.2" d="M103.71 287.503C120.165 287.503 133.504 274.151 133.504 257.68C133.504 241.209 120.165 227.857 103.71 227.857C87.2553 227.857 73.916 241.209 73.916 257.68C73.916 274.151 87.2553 287.503 103.71 287.503Z" fill="#00A2FF"/>
<path d="M103.71 281.694C116.959 281.694 127.7 270.942 127.7 257.68C127.7 244.418 116.959 233.666 103.71 233.666C90.4605 233.666 79.7197 244.418 79.7197 257.68C79.7197 270.942 90.4605 281.694 103.71 281.694Z" fill="#00A2FF"/>
<path d="M100.912 267.947L92.457 257.066L97.3738 253.238L101.377 258.39L114.9 244.101L119.422 248.389L100.912 267.947Z" fill="white"/>
<path d="M231.198 220.33C239.789 220.33 246.753 213.359 246.753 204.759C246.753 196.16 239.789 189.189 231.198 189.189C222.608 189.189 215.643 196.16 215.643 204.759C215.643 213.359 222.608 220.33 231.198 220.33Z" fill="#2F2E41"/>
<path d="M237.502 292.169L238.7 297.828L261.076 295.893L259.308 287.542L237.502 292.169Z" fill="#FFB8B8"/>
<path d="M235.76 309.854L231.994 292.068L238.859 290.612L241.17 301.526C241.361 302.428 241.372 303.359 241.204 304.266C241.035 305.173 240.69 306.038 240.188 306.811C239.685 307.585 239.036 308.251 238.276 308.773C237.516 309.295 236.661 309.662 235.76 309.854Z" fill="#2F2E41"/>
<path d="M223.484 291.867L220.966 297.074L199.707 289.828L203.424 282.144L223.484 291.867Z" fill="#FFB8B8"/>
<path d="M217.683 300.076L222.54 290.035L228.856 293.097L220.941 309.459C219.266 308.647 217.982 307.203 217.371 305.443C216.76 303.683 216.872 301.753 217.683 300.076Z" fill="#2F2E41"/>
<path d="M181.598 281.584C182.326 281.72 183.074 281.694 183.791 281.509C184.508 281.324 185.175 280.983 185.747 280.512C186.318 280.041 186.779 279.449 187.097 278.78C187.415 278.111 187.583 277.381 187.589 276.64L222.646 244.286L213.94 237.536L182.2 271.481C180.955 271.553 179.78 272.08 178.898 272.962C178.016 273.844 177.487 275.019 177.413 276.265C177.339 277.511 177.724 278.74 178.496 279.721C179.267 280.701 180.371 281.364 181.599 281.584L181.598 281.584Z" fill="#FFB8B8"/>
<path d="M229.246 221.033C235.64 221.033 240.823 215.844 240.823 209.444C240.823 203.044 235.64 197.855 229.246 197.855C222.852 197.855 217.669 203.044 217.669 209.444C217.669 215.844 222.852 221.033 229.246 221.033Z" fill="#FFB8B8"/>
<path d="M239.636 277.564C231.515 277.564 221.734 275.852 215.7 268.846L215.565 268.688L215.706 268.534C215.753 268.483 220.191 263.405 215.758 254.35L209.664 256.226L203.597 248.211L206.958 238.119L220.711 227.031C222.681 225.45 225.08 224.498 227.597 224.298C232.153 223.857 236.59 222.592 240.694 220.564C242.572 219.651 244.64 219.198 246.728 219.243L246.998 219.251C247.633 219.269 248.258 219.415 248.834 219.682C249.41 219.949 249.927 220.33 250.352 220.802C250.777 221.275 251.101 221.828 251.306 222.43C251.511 223.032 251.591 223.669 251.543 224.303C250.61 236.396 248.963 265.608 253.801 275.667L253.926 275.927L253.647 275.998C249.049 277.033 244.35 277.558 239.637 277.564L239.636 277.564Z" fill="#00A2FF"/>
<path d="M217.293 268.692C217.293 268.692 186.655 265.861 183.355 274.826C180.055 283.791 183.826 288.037 189.483 289.924C195.139 291.812 208.809 294.171 208.809 294.171L214.937 286.622L230.963 287.565C230.963 287.565 248.821 297.933 253.758 309.021C254.818 311.421 256.507 313.488 258.646 315.003C260.786 316.518 263.296 317.424 265.909 317.625C269.868 317.901 273.386 316.405 273.386 310.212C273.386 296.057 253.588 275.769 253.588 275.769L217.293 268.692Z" fill="#2F2E41"/>
<path d="M193.96 282.611C193.96 282.611 201.974 280.252 214.701 286.386L193.96 282.611Z" fill="#2F2E41"/>
<path d="M217.697 202.053C222.219 204.816 227.316 206.497 232.592 206.966L231.022 205.083C232.165 205.506 233.368 205.745 234.586 205.791C235.196 205.808 235.802 205.683 236.354 205.424C236.907 205.165 237.391 204.78 237.768 204.3C238.076 203.802 238.259 203.236 238.301 202.651C238.344 202.067 238.244 201.481 238.011 200.943C237.533 199.87 236.788 198.938 235.848 198.235C234.182 196.916 232.215 196.029 230.124 195.655C228.032 195.281 225.881 195.431 223.861 196.091C222.475 196.505 221.233 197.301 220.278 198.389C219.809 198.937 219.484 199.593 219.33 200.298C219.177 201.003 219.201 201.735 219.4 202.429" fill="#2F2E41"/>
<path d="M231.115 192.791C233.172 188.009 236.251 183.738 240.135 180.276C242.63 178.058 245.543 176.151 248.83 175.575C252.117 175 255.822 175.986 257.839 178.647C259.488 180.824 259.796 183.74 259.614 186.465C259.433 189.19 258.824 191.891 258.882 194.62C258.942 197.406 259.695 200.134 261.075 202.555C262.455 204.976 264.416 207.013 266.782 208.483C269.148 209.952 271.843 210.807 274.623 210.969C277.402 211.131 280.178 210.596 282.699 209.412C279.86 210.983 277.649 213.47 275.016 215.361C272.383 217.252 268.905 218.551 265.913 217.3C262.746 215.979 261.293 212.384 260.159 209.143L255.1 194.686C254.241 192.228 253.338 189.698 251.583 187.776C249.828 185.854 246.98 184.682 244.565 185.648C242.734 186.381 241.542 188.129 240.497 189.8C239.452 191.472 238.349 193.254 236.585 194.131C234.82 195.008 232.201 194.469 231.625 192.581" fill="#2F2E41"/>
<path d="M235.087 277.604C234.888 277.604 234.688 277.593 234.49 277.571C233.172 277.423 231.961 276.775 231.107 275.761C230.252 274.747 229.817 273.443 229.893 272.118C229.968 270.793 230.548 269.548 231.512 268.637C232.477 267.727 233.753 267.221 235.079 267.224C235.31 267.225 235.541 267.242 235.77 267.275L251.598 250.41L249.946 244.896L258.242 241.173L260.567 246.863C261.347 248.79 261.485 250.918 260.961 252.93C260.437 254.943 259.279 256.732 257.658 258.033L240.236 271.905C240.254 272.074 240.264 272.244 240.264 272.414C240.264 273.144 240.11 273.866 239.812 274.533C239.515 275.2 239.08 275.796 238.537 276.283C237.591 277.138 236.361 277.609 235.087 277.604Z" fill="#FFB8B8"/>
<path d="M247.461 221.509C248.009 221.265 248.602 221.134 249.202 221.125C249.803 221.116 250.399 221.228 250.955 221.456C251.511 221.683 252.015 222.02 252.438 222.448C252.86 222.875 253.192 223.383 253.413 223.942L261.602 244.629L248.875 253.122L247.461 221.509Z" fill="#00A2FF"/>
</svg>
