<svg width="112" height="125" viewBox="0 0 112 125" fill="none" xmlns="http://www.w3.org/2000/svg">
<mask id="mask0_45_4810" style="mask-type:luminance" maskUnits="userSpaceOnUse" x="0" y="0" width="114" height="125">
<path d="M57.139 2.06714L72.2132 13.5889L90.8744 13.5528L96.6051 32.1583L111.722 43.6199L105.923 62.2014L111.722 80.7828L96.6051 92.2444L90.8744 110.85L72.2132 110.814L57.139 122.336L42.0648 110.814L23.4036 110.85L17.6729 92.2444L2.55566 80.7828L8.3552 62.2014L2.55566 43.6199L17.6729 32.1583L23.4036 13.5528L42.0648 13.5889L57.139 2.06714Z" fill="white" stroke="white" stroke-width="4" stroke-linecap="round" stroke-linejoin="round"/>
<path d="M37.0518 62.2013L51.3999 77.2348L80.0963 47.1677" stroke="black" stroke-width="4" stroke-linecap="round" stroke-linejoin="round"/>
</mask>
<g mask="url(#mask0_45_4810)">
<path d="M0.885254 -9.95972H111.29V134.362H0.885254V-9.95972Z" fill="#00A2FF"/>
</g>
</svg>
