<svg width="36" height="36" viewBox="0 0 36 36" fill="none" xmlns="http://www.w3.org/2000/svg">
<circle cx="18" cy="18" r="18" fill="#1D9BF0"/>
<path d="M27.543 13.1045C27.5576 13.316 27.5576 13.5276 27.5576 13.7411C27.5576 20.2469 22.6045 27.75 13.5476 27.75V27.7461C10.8722 27.75 8.25229 26.9837 6 25.5388C6.38903 25.5856 6.78001 25.609 7.17197 25.61C9.38915 25.612 11.543 24.8681 13.2873 23.4983C11.1803 23.4583 9.3326 22.0846 8.68714 20.0792C9.42523 20.2215 10.1857 20.1923 10.9102 19.9944C8.61304 19.5303 6.96039 17.5122 6.96039 15.1684C6.96039 15.147 6.96039 15.1265 6.96039 15.106C7.64485 15.4872 8.41121 15.6988 9.19513 15.7222C7.03157 14.2764 6.36466 11.3983 7.67118 9.14817C10.1711 12.2241 13.8596 14.094 17.8191 14.2919C17.4223 12.5819 17.9644 10.79 19.2436 9.58787C21.2268 7.72379 24.3459 7.81933 26.2101 9.80138C27.3129 9.58397 28.3698 9.17937 29.337 8.60611C28.9694 9.74581 28.2001 10.7139 27.1725 11.3291C28.1484 11.2141 29.102 10.9528 30 10.554C29.3389 11.5446 28.5063 12.4074 27.543 13.1045Z" fill="white"/>
</svg>
