<svg width="160" height="182" viewBox="0 0 160 182" fill="none" xmlns="http://www.w3.org/2000/svg">
<g clip-path="url(#clip0_48_6450)">
<path d="M76.4679 170.738L76.2648 166.172C76.2437 166.161 76.2226 166.15 76.2014 166.139C74.0254 164.997 71.5315 167.064 72.2265 169.421C72.8805 171.639 73.3198 174.029 74.5169 175.971C75.2241 177.098 76.1761 178.052 77.3021 178.762C78.4281 179.471 79.6994 179.918 81.0217 180.07L83.7863 181.762C84.1656 179.648 84.082 177.476 83.5411 175.396C83.0003 173.317 82.015 171.379 80.6533 169.718C79.8802 168.793 78.9936 167.969 78.0146 167.266C77.3525 169.012 76.4679 170.738 76.4679 170.738Z" fill="#F2F2F2"/>
<path d="M56.2801 127.729C50.2323 122.225 41.4681 119.069 32.2348 119.069L31.8786 119.07C25.7969 119.072 19.8237 117.648 14.5699 114.945L14.0232 114.664L14.4636 114.264C16.8474 112.087 18.8379 109.601 20.3654 106.891C19.2805 107.783 17.9867 108.454 16.5753 108.856C15.164 109.259 13.6697 109.382 12.1982 109.219C10.6446 109.055 9.15315 108.584 7.83567 107.839C6.5182 107.094 -22.6639 109.219 4.59103 104.919C1.3639 100.299 -2.48289 93.7428 -2.48289 88.7485C-2.47786 84.527 -1.47617 80.3527 0.458354 76.4917C2.39288 72.6308 5.21777 69.1678 8.75301 66.3235C10.9911 64.5428 12.7788 62.3658 13.9995 59.9345C15.2202 57.5032 15.8465 54.8722 15.8376 52.213L15.8358 51.8346C15.8352 48.3336 16.32 44.8456 17.2795 41.4486L17.3769 41.1055L17.7769 41.1179C20.3562 41.1953 22.9369 41.0045 25.4657 40.5495C23.0937 40.2927 20.7733 39.7481 18.5702 38.9311L18.1399 38.7775L18.2859 38.3884C28.3523 32.8886 51.075 35.7367 64.2639 9.10961C74.9584 -12.4813 112.692 28.2759 112.692 51.8346C112.692 54.2385 109.996 57.4151 112.014 59.004C133.832 76.1796 118.778 87.2086 114.032 98.3065C112.906 100.94 115.347 103.83 115.347 106.679C115.347 107.162 115.333 107.661 115.306 108.162L115.264 108.932L114.536 108.505C113.097 107.673 111.763 106.707 110.557 105.625C111.808 108.165 112.398 110.921 112.283 113.69C112.167 116.458 111.35 119.168 109.891 121.621C107.605 125.429 105.393 128.155 103.317 129.723C96.6662 134.745 88.0929 137.336 79.3498 136.965C70.6067 136.594 62.3543 133.291 56.2801 127.729Z" fill="#85D2FF"/>
<path d="M83.8627 181.537C83.9936 181.537 84.1199 181.49 84.2187 181.404C84.3175 181.318 84.382 181.199 84.4005 181.07C84.4236 180.908 86.6868 164.585 84.6542 142.892C82.777 122.858 76.7488 94.0015 58.6907 70.3023C58.6475 70.2454 58.5935 70.1976 58.5317 70.1616C58.47 70.1256 58.4017 70.1021 58.3309 70.0925C58.2601 70.0829 58.188 70.0873 58.1189 70.1055C58.0498 70.1238 57.985 70.1555 57.9281 70.1988C57.8712 70.2421 57.8235 70.2962 57.7875 70.358C57.7516 70.4198 57.7282 70.4881 57.7187 70.559C57.7092 70.6298 57.7137 70.7018 57.7321 70.7709C57.7504 70.84 57.7822 70.9048 57.8256 70.9616C75.7277 94.4561 81.7073 123.101 83.5712 142.993C85.592 164.56 83.3465 180.756 83.3236 180.917C83.3127 180.994 83.3185 181.072 83.3406 181.147C83.3627 181.222 83.4005 181.291 83.4517 181.35C83.5028 181.409 83.5659 181.456 83.6368 181.488C83.7078 181.52 83.7848 181.537 83.8627 181.537Z" fill="black" fill-opacity="0.5"/>
<path d="M69.1266 103.731C69.2415 103.731 69.3534 103.695 69.4464 103.627C69.5394 103.56 69.6086 103.465 69.6442 103.356C69.6797 103.246 69.6798 103.129 69.6443 103.019C69.6088 102.91 69.5397 102.815 69.4468 102.747C69.3812 102.7 62.775 97.9397 52.8989 94.3236C43.7692 90.9812 29.886 87.951 15.5936 92.4998C15.5254 92.5213 15.4622 92.5561 15.4075 92.6022C15.3528 92.6482 15.3077 92.7046 15.2748 92.768C15.2419 92.8315 15.2219 92.9008 15.2158 92.9721C15.2098 93.0433 15.2178 93.115 15.2395 93.1831C15.2612 93.2513 15.296 93.3144 15.3422 93.3691C15.3883 93.4237 15.4447 93.4687 15.5082 93.5015C15.5718 93.5342 15.6411 93.5542 15.7124 93.5601C15.7836 93.5661 15.8553 93.5579 15.9234 93.5362C29.923 89.0808 43.5545 92.0609 52.5249 95.3451C62.2601 98.9096 68.7429 103.581 68.8073 103.627C68.9 103.695 69.0118 103.731 69.1266 103.731Z" fill="black" fill-opacity="0.5"/>
<path d="M94.0174 41.7364C94.0258 41.6218 93.9976 41.5075 93.937 41.4099C93.8764 41.3123 93.7865 41.2364 93.6801 41.1931C93.5737 41.1498 93.4563 41.1413 93.3448 41.1688C93.2332 41.1963 93.1333 41.2584 93.0592 41.3462C93.007 41.4082 87.7836 47.6544 83.4656 57.2445C79.4744 66.1098 75.4523 79.7386 78.96 94.3215C78.9937 94.4618 79.0818 94.5829 79.2048 94.6582C79.3278 94.7335 79.4757 94.7568 79.6159 94.7231C79.7561 94.6894 79.8772 94.6013 79.9525 94.4783C80.0278 94.3553 80.0512 94.2074 80.0174 94.0672C76.5819 79.7831 80.5359 66.4016 84.4575 57.691C88.7138 48.2378 93.8395 42.1082 93.8907 42.0474C93.9648 41.9597 94.0092 41.8509 94.0174 41.7364Z" fill="black" fill-opacity="0.5"/>
<path d="M93.2815 69.7794C93.7404 73.4815 96.3056 76.5339 100.036 76.5339C101.828 76.5339 103.546 75.8223 104.812 74.5556C106.079 73.2888 106.791 71.5708 106.791 69.7794C106.791 66.0489 103.751 63.3697 100.036 63.0248C96.0948 62.6588 92.6924 65.0263 93.2815 69.7794Z" fill="#2F2E41"/>
<path d="M103.165 178.562L105.737 178.562L106.96 168.64L103.164 168.641L103.165 178.562Z" fill="white"/>
<path d="M103.074 181.245L110.984 181.245V181.145C110.984 180.329 110.66 179.545 110.082 178.968C109.505 178.391 108.722 178.066 107.905 178.066H107.905L106.46 176.97L103.765 178.067L103.074 178.067L103.074 181.245Z" fill="#2F2E41"/>
<path d="M93.0327 178.562L95.6049 178.562L96.8286 168.64L93.0322 168.641L93.0327 178.562Z" fill="white"/>
<path d="M92.9425 181.245L100.852 181.245V181.145C100.852 180.329 100.528 179.545 99.9506 178.968C99.3732 178.391 98.5902 178.066 97.7736 178.066H97.7735L96.3286 176.97L93.6329 178.067L92.9424 178.067L92.9425 181.245Z" fill="#2F2E41"/>
<path d="M112.016 116.422L113.835 122.657L111.693 149.064C111.693 149.064 112.796 150.715 112.016 150.715C111.237 150.715 110.238 151.081 110.867 152.067C111.497 153.053 109.345 156.593 109.345 156.593L106.301 175.395L102.423 175.338C102.423 175.338 100.451 174.239 101.557 173.128C102.664 172.018 103.443 172.018 102.404 170.979C101.365 169.939 101.365 170.252 101.365 169.446C101.365 168.64 100.324 158.791 102.793 155.013L102.049 139.608L100.297 154.718L96.6887 174.875L92.9525 174.845C92.9525 174.845 91.2267 173.181 91.2299 171.95C91.2331 170.719 92.2961 170.616 91.5048 169.888C90.7135 169.16 90.7135 157.973 93.0516 151.754C93.0516 151.754 94.3743 148.28 93.0486 147.089C91.723 145.898 93.047 144.536 93.047 144.536C93.047 144.536 95.1466 143.777 93.0451 141.59C90.9436 139.404 93.0337 123.938 93.0337 123.938C93.0337 123.938 90.7365 117.695 93.0631 115.24C95.3898 112.785 112.016 116.422 112.016 116.422Z" fill="#2F2E41"/>
<path d="M79.6267 127.164L82.8713 119.323L85.4276 120.744L83.8838 128.72C84.0384 129.225 84.049 129.764 83.9144 130.275C83.7798 130.786 83.5053 131.249 83.1218 131.613C82.7382 131.976 82.2609 132.226 81.7434 132.333C81.226 132.44 80.6888 132.401 80.1925 132.219C79.6961 132.038 79.2602 131.722 78.9337 131.306C78.6072 130.891 78.4031 130.392 78.3443 129.867C78.2855 129.342 78.3744 128.811 78.6009 128.333C78.8275 127.856 79.1827 127.451 79.6267 127.164Z" fill="white"/>
<path d="M134.072 65.1599L129.135 72.0619L126.967 70.0994L130.278 62.6803C130.242 62.1531 130.354 61.6262 130.601 61.159C130.848 60.6918 131.22 60.3027 131.676 60.0354C132.132 59.7682 132.653 59.6335 133.182 59.6464C133.71 59.6592 134.224 59.8192 134.666 60.1083C135.109 60.3974 135.462 60.8042 135.686 61.2829C135.909 61.7616 135.995 62.2933 135.934 62.8181C135.872 63.343 135.665 63.8402 135.336 64.2539C135.007 64.6676 134.57 64.9813 134.072 65.1599Z" fill="white"/>
<path d="M112.506 117.062C115.708 122.028 99.6122 128.331 93.4362 125.801C92.3547 125.358 88.6346 123.894 91.1774 121.865C93.7202 119.836 90.8826 119.551 90.8155 118.23C90.7707 117.347 91.4544 115.409 90.741 115.492C90.0277 115.576 89.1927 114.354 90.7464 113.829C92.3 113.303 90.763 112.824 90.7766 112.325C90.9252 106.881 95.1021 98.2218 95.1021 98.2218L87.5757 117.461C87.5757 117.461 87.6313 120.79 86.6715 119.773C85.7117 118.755 85.7815 122.047 85.7815 122.047C85.7815 122.047 84.3543 123.043 85.175 123.598C85.9957 124.152 84.2915 125.856 84.2915 125.856L80.3149 125.572C80.3149 125.572 80.3772 122.618 81.0562 121.965C81.7351 121.312 81.4016 120.284 81.4016 120.284C81.4016 120.284 83.1694 118.719 81.9843 117.448C80.46 115.814 86.0173 88.214 87.9351 88.4873C88.2063 87.1677 88.837 85.9488 89.7577 84.9653C90.6783 83.9818 91.853 83.272 93.1518 82.9144L97.4467 81.7318L98.2094 78.7059H104.257L105.31 80.6942L109.908 82.769C110.774 81.5471 111.421 80.2595 114.968 79.8421C114.968 79.8421 124.523 71.1477 124.057 70.4688C123.59 69.7899 125.072 68.2005 125.072 68.2005C125.072 68.2005 126.337 67.7865 125.623 67.5654C124.909 67.3443 126.258 66.8332 126.258 66.8332C126.258 66.8332 127.508 66.5049 126.919 66.0725C126.329 65.6401 128.886 65.3561 128.886 65.3561L132.202 68.0623L131.532 69.199C131.532 69.199 131.941 70.7468 131.407 70.1817C130.874 69.6167 130.773 71.2565 130.773 71.2565C130.773 71.2565 130.501 73.0522 128.886 73.5932C127.27 74.1342 126.045 79.274 126.045 79.274C122.235 84.2275 117.739 88.0917 112.411 90.6355C114.488 93.0189 112.506 117.062 112.506 117.062Z" fill="#00A2FF"/>
<path d="M100.783 76.935C104.091 76.935 106.772 74.2534 106.772 70.9454C106.772 67.6374 104.091 64.9557 100.783 64.9557C97.4746 64.9557 94.793 67.6374 94.793 70.9454C94.793 74.2534 97.4746 76.935 100.783 76.935Z" fill="white"/>
<path d="M94.5805 71.598C94.7701 72.8995 95.8794 74.7155 95.6196 74.7155C95.3599 74.7155 93.5127 69.3499 95.3599 69.0001C96.6997 68.7463 96.9991 68.9689 98.2513 68.4259L98.0747 68.5922C98.9034 69.1949 100.057 68.8234 101.003 68.4311C101.951 68.0414 103.102 67.6699 103.933 68.27C104.455 68.6467 104.676 69.3014 105.001 69.8574C105.325 70.4159 105.926 70.9433 106.544 70.7718C107.04 70.6342 107.326 70.0782 107.323 69.5638C107.321 69.0494 106.651 68.5601 106.876 68.0986C107.545 66.7309 106.944 65.7987 105.487 65.1551C104.957 65.0746 104.427 64.9923 103.897 64.9083C104.174 64.5237 104.511 64.1853 104.894 63.9055C104.732 63.4904 104.452 63.1319 104.089 62.8742C103.665 62.6222 103.141 62.6404 102.65 62.6663C101.553 62.7235 100.458 62.7806 99.3633 62.8378C98.5527 62.8794 97.7136 62.9287 96.9888 63.3002C96.0847 63.7653 95.4924 64.6719 95.0611 65.5942C94.0947 67.6673 94.2479 69.3352 94.5805 71.598Z" fill="#2F2E41"/>
<path d="M69.6638 181.92L128.572 182C128.654 182 128.732 181.967 128.79 181.909C128.848 181.851 128.881 181.773 128.881 181.691C128.881 181.609 128.848 181.53 128.79 181.472C128.732 181.414 128.654 181.381 128.572 181.381L69.6638 181.302C69.5818 181.302 69.5031 181.334 69.4451 181.392C69.3871 181.45 69.3545 181.529 69.3545 181.611C69.3545 181.693 69.3871 181.772 69.4451 181.83C69.5031 181.888 69.5818 181.92 69.6638 181.92Z" fill="#CACACA"/>
<path d="M48.3584 154.956C48.467 154.21 47.6853 153.478 46.6123 153.322C45.5394 153.166 44.5816 153.644 44.473 154.391C44.3644 155.137 45.1462 155.869 46.2191 156.025C47.292 156.181 48.2498 155.702 48.3584 154.956Z" fill="#E6E6E6"/>
<path d="M61.1328 153.71C61.2414 152.963 60.4597 152.232 59.3867 152.076C58.3138 151.919 57.356 152.398 57.2474 153.144C57.1388 153.891 57.9206 154.622 58.9935 154.778C60.0664 154.934 61.0242 154.456 61.1328 153.71Z" fill="#3F3D56"/>
<path d="M44.8603 144.614C44.9689 143.868 44.1872 143.136 43.1143 142.98C42.0414 142.824 41.0835 143.303 40.975 144.049C40.8664 144.795 41.6481 145.527 42.721 145.683C43.7939 145.839 44.7518 145.361 44.8603 144.614Z" fill="#FF6584"/>
<path d="M39.3098 140.378C39.315 139.693 38.9327 139.134 38.4561 139.131C37.9794 139.127 37.5888 139.68 37.5836 140.365C37.5784 141.05 37.9606 141.609 38.4373 141.612C38.914 141.616 39.3046 141.063 39.3098 140.378Z" fill="#E6E6E6"/>
<path d="M37.4269 132.488C37.4321 131.803 37.0499 131.244 36.5733 131.241C36.0966 131.237 35.706 131.79 35.7008 132.475C35.6956 133.16 36.0778 133.718 36.5545 133.722C37.0312 133.726 37.4218 133.173 37.4269 132.488Z" fill="#3F3D56"/>
<path d="M52.0651 146.374C52.0703 145.689 51.6881 145.131 51.2114 145.127C50.7348 145.123 50.3442 145.676 50.339 146.361C50.3338 147.046 50.716 147.605 51.1927 147.608C51.6693 147.612 52.06 147.059 52.0651 146.374Z" fill="#E6E6E6"/>
<path d="M45.8923 149.456C45.8975 148.771 45.5152 148.213 45.0386 148.209C44.5619 148.206 44.1713 148.758 44.1661 149.443C44.1609 150.128 44.5431 150.687 45.0198 150.69C45.4965 150.694 45.8871 150.142 45.8923 149.456Z" fill="#FF6584"/>
<path d="M54.4851 155.153C54.4902 154.468 54.108 153.909 53.6314 153.906C53.1547 153.902 52.7641 154.455 52.7589 155.14C52.7537 155.825 53.1359 156.384 53.6126 156.387C54.0893 156.391 54.4799 155.838 54.4851 155.153Z" fill="#3F3D56"/>
<path d="M146.56 114.948C146.668 114.202 145.886 113.47 144.814 113.314C143.741 113.158 142.783 113.637 142.674 114.383C142.566 115.129 143.347 115.861 144.42 116.017C145.493 116.173 146.451 115.695 146.56 114.948Z" fill="#E6E6E6"/>
<path d="M159.334 113.702C159.443 112.955 158.661 112.224 157.588 112.068C156.515 111.911 155.557 112.39 155.449 113.136C155.34 113.883 156.122 114.614 157.195 114.77C158.268 114.927 159.225 114.448 159.334 113.702Z" fill="#3F3D56"/>
<path d="M143.062 104.606C143.17 103.86 142.388 103.128 141.315 102.972C140.243 102.816 139.285 103.295 139.176 104.041C139.068 104.787 139.849 105.519 140.922 105.675C141.995 105.831 142.953 105.353 143.062 104.606Z" fill="#FF6584"/>
<path d="M137.511 100.37C137.516 99.6849 137.134 99.1265 136.657 99.1229C136.181 99.1193 135.79 99.6719 135.785 100.357C135.78 101.042 136.162 101.601 136.638 101.604C137.115 101.608 137.506 101.055 137.511 100.37Z" fill="#E6E6E6"/>
<path d="M135.629 92.4799C135.634 91.7947 135.252 91.2363 134.775 91.2327C134.298 91.2291 133.908 91.7816 133.902 92.4668C133.897 93.152 134.279 93.7104 134.756 93.714C135.233 93.7177 135.623 93.1651 135.629 92.4799Z" fill="#3F3D56"/>
<path d="M150.266 106.366C150.271 105.681 149.889 105.123 149.413 105.119C148.936 105.115 148.545 105.668 148.54 106.353C148.535 107.038 148.917 107.597 149.394 107.6C149.871 107.604 150.261 107.051 150.266 106.366Z" fill="#E6E6E6"/>
<path d="M144.093 109.448C144.099 108.763 143.716 108.205 143.24 108.201C142.763 108.198 142.372 108.75 142.367 109.435C142.362 110.121 142.744 110.679 143.221 110.683C143.698 110.686 144.088 110.134 144.093 109.448Z" fill="#FF6584"/>
<path d="M152.687 115.145C152.692 114.46 152.31 113.901 151.833 113.898C151.356 113.894 150.966 114.447 150.961 115.132C150.955 115.817 151.338 116.376 151.814 116.379C152.291 116.383 152.682 115.83 152.687 115.145Z" fill="#3F3D56"/>
<path d="M99.0176 40.9075C99.1262 40.1611 98.3444 39.4295 97.2715 39.2734C96.1986 39.1173 95.2408 39.5958 95.1322 40.3422C95.0236 41.0885 95.8053 41.8202 96.8782 41.9763C97.9512 42.1324 98.909 41.6538 99.0176 40.9075Z" fill="white"/>
<path d="M111.792 39.661C111.901 38.9146 111.119 38.183 110.046 38.0269C108.973 37.8708 108.015 38.3493 107.907 39.0957C107.798 39.8421 108.58 40.5737 109.653 40.7298C110.726 40.8859 111.683 40.4074 111.792 39.661Z" fill="#3F3D56"/>
<path d="M95.5195 30.5657C95.6281 29.8193 94.8464 29.0877 93.7735 28.9316C92.7005 28.7755 91.7427 29.254 91.6341 30.0004C91.5255 30.7467 92.3073 31.4784 93.3802 31.6345C94.4531 31.7906 95.4109 31.3121 95.5195 30.5657Z" fill="#FF6584"/>
<path d="M89.9689 26.3295C89.9741 25.6443 89.5919 25.0859 89.1152 25.0823C88.6386 25.0787 88.248 25.6312 88.2428 26.3164C88.2376 27.0017 88.6198 27.5601 89.0965 27.5637C89.5731 27.5673 89.9638 27.0147 89.9689 26.3295Z" fill="#E6E6E6"/>
<path d="M88.0866 18.4392C88.0918 17.754 87.7096 17.1956 87.2329 17.192C86.7563 17.1884 86.3656 17.741 86.3605 18.4262C86.3553 19.1114 86.7375 19.6698 87.2142 19.6734C87.6908 19.677 88.0814 19.1244 88.0866 18.4392Z" fill="#3F3D56"/>
<path d="M102.724 32.3256C102.729 31.6404 102.347 31.082 101.871 31.0784C101.394 31.0748 101.003 31.6273 100.998 32.3125C100.993 32.9977 101.375 33.5561 101.852 33.5597C102.329 33.5634 102.719 33.0108 102.724 32.3256Z" fill="#E6E6E6"/>
<path d="M96.5515 35.4077C96.5566 34.7225 96.1744 34.1642 95.6978 34.1606C95.2211 34.1569 94.8305 34.7095 94.8253 35.3947C94.8201 36.0799 95.2023 36.6383 95.679 36.6419C96.1557 36.6455 96.5463 36.093 96.5515 35.4077Z" fill="#FF6584"/>
<path d="M105.145 41.1044C105.15 40.4192 104.768 39.8608 104.291 39.8572C103.814 39.8536 103.424 40.4061 103.419 41.0913C103.413 41.7766 103.796 42.335 104.272 42.3386C104.749 42.3422 105.14 41.7896 105.145 41.1044Z" fill="#3F3D56"/>
</g>
<defs>
<clipPath id="clip0_48_6450">
<rect width="159.344" height="182" fill="white"/>
</clipPath>
</defs>
</svg>
